<svg id="Warstwa_1" data-name="Warstwa 1" xmlns="http://www.w3.org/2000/svg" viewBox="0 0 55.9 60"><defs><style>.cls-1{fill:#dd0031;}.cls-2{fill:#c3002f;}.cls-3{fill:#fff;}</style></defs><polygon class="cls-1" points="27.9 0 27.9 0 27.9 0 0 10 4.3 46.9 27.9 60 27.9 60 27.9 60 51.6 46.9 55.9 10 27.9 0"/><polygon class="cls-2" points="27.9 0 27.9 6.7 27.9 6.7 27.9 37.1 27.9 37.1 27.9 60 27.9 60 51.6 46.9 55.9 10 27.9 0"/><path class="cls-3" d="M27.9,6.7,10.5,45.8H17L20.5,37H35.3l3.5,8.8h6.5L27.9,6.7Zm5.1,25H22.8l5.1-12.3Z"/></svg>