<?xml version="1.0" encoding="utf-8"?>
<!-- Generator: Adobe Illustrator 25.0.0, SVG Export Plug-In . SVG Version: 6.00 Build 0)  -->
<svg version="1.1" id="Warstwa_1" xmlns="http://www.w3.org/2000/svg" xmlns:xlink="http://www.w3.org/1999/xlink" x="0px" y="0px"
	 viewBox="0 0 1000 1000" style="enable-background:new 0 0 1000 1000;" xml:space="preserve">
<style type="text/css">
	.st0{fill:#3BC9DB;}
	.st1{display:none;}
	.st2{display:inline;}
	.st3{fill:none;stroke:#51CF66;stroke-width:10;stroke-linecap:round;stroke-linejoin:round;}
</style>
<g>
	<path class="st0" d="M542.8,16.7c25.5,0,47.2,22.3,47.2,48.7v39.9c0,41,35.7,75.7,77.9,75.7c21.5,0,42-9.2,56.4-25.2l23.8-24
		c9.2-8.7,21.2-13.5,33.9-13.5s24.7,4.8,34,13.5l57.9,57.4l0.3,0.3c8.8,9,13.7,20.8,13.7,33.5c0,12.7-5,24.5-14,33.4L848.6,281
		c-15.8,14-24.8,34-24.8,55.2c0,42,34.9,77.5,76,77.5h39.5c12.2,0,22.7,4.3,30.7,12.3c8.5,8.5,13,20.7,12.8,34v0.2v0.2v79.4
		c0,27-18.5,46.7-44,46.7h-39.5c-41.9,0-76,34.9-76,77.7c0,21,9.2,41.2,24.8,55.2l25.2,24.7c18.3,18.5,18.3,48.7,0,67.2l-57.9,57.7
		c-9.2,8.7-21.3,13.5-34,13.5c-12.7,0-24.7-4.8-34-13.5l-24.2-24.2c-15.3-16.2-35.4-25-56.2-25c-42.2,0-77.9,34.7-77.9,75.9v39.5
		c0,12.8-4.8,25.2-13.8,34.4c-8.8,9.2-20.5,14.3-33,14.3h-79.2c-12.5,0-24.3-5.2-33.2-14.3c-9-9.3-13.8-21.5-13.8-34.4v-39.5
		c0-41-35.7-75.9-77.9-75.7H338c-21,0-41,8.8-55.2,24.5L258,868.9c-9.2,8.7-21.2,13.5-33.9,13.5h-0.2c-13,0-25.5-5-33.7-13.2l0,0
		l0,0l-58-57.7c-18.5-18.5-18.5-48.5,0-67l24-23.8c16.2-14.2,25.5-34.5,25.7-56l0,0l0,0c0-42-34.9-77.5-76-77.5H66.4
		c-13,0-25.3-4.8-34.7-13.8c-9.2-8.8-14.3-20.5-14.3-32.7v-79.2c0-25.7,22-46.7,48.9-46.7h39.5c41.9,0,76-34.9,76-77.5l0,0l0,0
		c-0.2-21.5-9.5-41.9-25.5-56l-24-24c-18.5-18.5-18.5-48.5,0-67l58.5-58.4c9.2-8.7,21.2-13.5,33.9-13.5c13,0,25.5,5,33.7,13.2l0,0
		l0,0l24.8,24.7c14.2,15.5,34.2,24.3,55.2,24.3c42.2,0,77.9-34.7,77.9-75.9V65.4c0-12.8,4.8-25.2,13.8-34.4
		c9.3-9.3,21-14.3,33.5-14.3H542.8 M502.9,724.9c124.1,0,224.9-100.9,224.9-224.9S627,275,502.9,275S278,375.9,278,499.9
		S378.9,724.9,502.9,724.9 M542.8,0h-79.2C428.2,0,400,30,400,65.4v39.5c0,32-27.8,59.2-61.2,59.2c-16.5,0-32.2-7-43.2-19.3
		l-25.2-25c-11.5-11.7-28.3-18.2-45.5-18.2l0,0c-17,0-33.2,6.5-45.5,18.2l-58.7,57.4c-25,25-25,65.5,0,90.5l24.5,24.5
		c12.8,11,20.2,27.2,20.3,44c0,33.4-27,60.9-59.4,60.9H66.4c-35.5,0-65.5,27.8-65.5,63.4v79.2c0,35.2,30,63.2,65.5,63.2h39.5
		c32.3,0,59.4,27.8,59.4,60.9c-0.2,16.8-7.5,32.8-20.3,44l-24.5,24.2c-25,25-25,65.5,0,90.5l58,57.9c11.5,11.7,28.3,18.2,45.5,18.2
		h0.2c16.8,0,33.2-6.5,45.4-18.2l25.2-25c11-12.3,26.7-19.3,43-19.3h0.2c33.4,0,61.2,27,61.2,59.2v39.5c0,35.2,28.2,65.4,63.9,65.4
		h79.2c35.4,0,63.5-30,63.5-65.4v-39.5c0-32,27.8-59.2,61.2-59.2c16.7,0,32.3,7.3,44.2,20l24.5,24.5c12.8,12.2,29.2,18.2,45.5,18.2
		s32.8-6,45.5-18.2l58-57.9c25-25.2,25-65.7,0-90.9l-25.5-25c-12.3-10.8-19.5-26.5-19.5-43c0-33.4,27-60.9,59.4-60.9h39.5
		c35.4,0,60.7-27.8,60.7-63.4v-79.4c0.5-35.4-24.7-63.4-60.2-63.4h-39.5c-32.3,0-59.4-27.8-59.4-60.9c0-16.5,7.2-32.2,19.5-43
		l25.5-25c25-24.8,25.3-65.4,0.5-90.4c-0.2-0.2-0.3-0.3-0.5-0.5l-58-57.5c-12.8-12.2-29.2-18.2-45.5-18.2s-32.8,6-45.5,18.2
		l-24.5,24.5c-11.2,12.7-27.3,20-44.2,20l0,0c-33.4,0-61.2-27-61.2-59V65.4C606.5,30.2,578.1,0,542.8,0L542.8,0z M502.9,708.2
		c-115.1,0-208.3-93.2-208.3-208.3s93.2-208.3,208.3-208.3s208.3,93.2,208.3,208.3S618,708.2,502.9,708.2L502.9,708.2z"/>
</g>
<g class="st1">
	<g class="st2">
		<path class="st3" d="M519.7,540.6v-8.4c0-10.1,11-19.7,18.1-26.5c10.1-9.6,15.4-22.5,15.4-37.7c0-27.9-22.2-50.3-50.3-50.3
			c-27.7-0.1-50.2,22.3-50.3,50c0,0.1,0,0.2,0,0.3c0,14.6,5.5,28.4,15.4,37.7c7.1,6.7,18.1,16.3,18.1,26.5v8.4 M491.7,574.1H514
			 M486.2,557.3h33.5 M502.9,540.6v-44.7"/>
		<path class="st3" d="M516.2,490.3c0,0-7.5,5.6-13.3,5.6s-13.3-5.6-13.3-5.6"/>
	</g>
</g>
</svg>
