<?xml version="1.0" encoding="utf-8"?>
<!-- Generator: Adobe Illustrator 25.0.0, SVG Export Plug-In . SVG Version: 6.00 Build 0)  -->
<svg version="1.1" id="Warstwa_1" xmlns="http://www.w3.org/2000/svg" xmlns:xlink="http://www.w3.org/1999/xlink" x="0px" y="0px"
	 viewBox="0 0 998.4 1000.1" style="enable-background:new 0 0 998.4 1000.1;" xml:space="preserve">
<style type="text/css">
	.st0{fill:#3BC9DB;}
</style>
<path class="st0" d="M541.9,16.7c25.5,0,47.2,22.3,47.2,48.7v39.8c0,41,35.7,75.7,77.9,75.7c21.5,0,42-9.2,56.4-25.2l23.8-24
	c9.1-8.7,21.3-13.5,33.8-13.5c12.6,0,24.8,4.8,34,13.5l57.9,57.4l0.3,0.3c8.8,8.9,13.7,21,13.7,33.5c0,12.6-5,24.6-14,33.4
	L847.8,281c-15.8,14-24.9,34.1-24.8,55.2c0,42,34.8,77.5,76,77.5h39.6c12.2,0,22.7,4.3,30.7,12.3c8.5,8.5,13,20.7,12.8,34v79.7
	c0,27-18.5,46.7-44,46.7h-39.5c-41.8,0-76,34.8-76,77.7c0.1,21.1,9.1,41.2,24.8,55.2l25.1,24.6c18.3,18.6,18.3,48.6,0,67.2
	l-57.9,57.7c-19.1,18-48.9,18-68,0l-24.2-24.2c-15.3-16.2-35.3-25-56.2-25c-42.2,0-77.9,34.7-77.9,75.9V935
	c0.1,12.8-4.9,25.2-13.8,34.3c-8.6,9.1-20.5,14.3-33,14.3h-79.2c-12.6,0-24.5-5.2-33.2-14.3c-8.9-9.2-13.9-21.5-13.9-34.4v-39.5
	c0-41-35.7-75.9-77.9-75.7h-0.1c-21,0-41.1,8.9-55.2,24.5l-24.8,24.5c-9.1,8.7-21.3,13.5-33.9,13.5h-0.2c-13,0-25.5-5-33.7-13.2l0,0
	l-58-57.7c-18.5-18.5-18.5-48.5,0-67l24-23.8c16.2-14.1,25.5-34.5,25.7-56l0,0c0-42-34.9-77.5-76-77.5H65.5
	c-12.9,0.1-25.4-4.9-34.7-13.8c-9.1-8.5-14.2-20.3-14.3-32.7v-79.2c0-25.7,22-46.7,48.9-46.7h39.5c41.9,0,76-34.9,76-77.5l0,0
	c-0.2-21.4-9.5-41.8-25.5-56l-24-24c-18.5-18.5-18.5-48.5,0-67l58.5-58.4c9.1-8.7,21.3-13.5,33.8-13.5c13,0,25.5,5,33.7,13.2l0,0
	l24.9,24.7c14.2,15.5,34.2,24.3,55.2,24.3c42.2,0,77.9-34.7,77.9-75.9V65.4c-0.1-12.8,4.9-25.2,13.8-34.4c9.3-9.3,21-14.3,33.5-14.3
	H541.9 M502.1,724.9c124.1,0,225-100.9,225-224.9s-100.9-225-225-225S277.2,375.9,277.2,499.9S378,724.9,502.1,724.9 M541.9,0h-79.2
	c-35.4,0-63.6,30-63.6,65.4v39.5c0,32-27.9,59.2-61.2,59.2c-16.5,0-32.2-7-43.2-19.3l-25.2-25c-11.5-11.7-28.3-18.2-45.5-18.2l0,0
	c-16.9,0-33.2,6.5-45.5,18.2l-58.7,57.4c-25,25-25,65.5,0,90.5l0,0l24.5,24.5c12.8,11.1,20.2,27.1,20.3,44c0,33.4-27,60.9-59.4,60.9
	H65.5C30,397,0,424.9,0,460.4v79.2c0,35.2,30,63.2,65.5,63.2H105c32.4,0,59.4,27.8,59.4,60.9c-0.2,16.9-7.6,32.9-20.4,44l-24.5,24.2
	c-25,25-25,65.5,0,90.5l0,0l58,57.9c11.5,11.7,28.4,18.2,45.5,18.2h0.2c16.9,0,33.1-6.5,45.4-18.2l25.2-25
	c10.9-12.3,26.6-19.3,43-19.3h0.2c33.4,0,61.2,27,61.2,59.2v39.5c0,35.2,28.2,65.4,63.9,65.4h79.3c35.3,0,63.5-30,63.5-65.4v-39.5
	c0-32,27.8-59.2,61.2-59.2c16.7,0,32.3,7.3,44.2,20l24.5,24.5c25.5,24.2,65.5,24.2,91,0l58-57.9c25-25.1,25-65.7,0-90.9l-25.5-25
	c-12.4-10.9-19.5-26.5-19.5-43c0-33.3,27-60.9,59.4-60.9h39.5c35.3,0,60.7-27.8,60.7-63.4V460c0.5-35.4-24.7-63.4-60.2-63.4h-39.5
	c-32.3,0-59.4-27.9-59.4-60.9c0-16.5,7.1-32.1,19.5-43l25.5-25c25-24.8,25.3-65.3,0.5-90.4c-0.2-0.2-0.3-0.3-0.5-0.5l-58-57.5
	c-25.5-24.2-65.5-24.2-91,0l-24.5,24.5c-11.2,12.7-27.3,20-44.2,20l0,0c-33.3,0-61.2-27-61.2-59V65.4C605.6,30.2,577.3,0,541.9,0z
	 M502.1,708.2c-115,0-208.3-93.2-208.3-208.3S387,291.6,502.1,291.6s208.3,93.2,208.3,208.3S617.2,708.2,502.1,708.2z"/>
</svg>
