<svg id="Warstwa_1" data-name="Warstwa 1" xmlns="http://www.w3.org/2000/svg" viewBox="0 0 998.41 1000.1"><defs><style>.cls-1{fill:#3bc9db;}.cls-2{fill:#51cf66;fill-rule:evenodd;opacity:0.1;}</style></defs><path class="cls-1" d="M541.9,16.7c25.5,0,47.2,22.3,47.2,48.7v39.8c0,41,35.7,75.7,77.9,75.7a76,76,0,0,0,56.4-25.2l23.8-24a49.31,49.31,0,0,1,67.8,0l57.9,57.4.3.3a47.71,47.71,0,0,1,13.7,33.5,46.58,46.58,0,0,1-14,33.4L847.8,281A73.37,73.37,0,0,0,823,336.2c0,42,34.8,77.5,76,77.5h39.6c12.2,0,22.7,4.3,30.7,12.3,8.5,8.5,13,20.7,12.8,34v79.7c0,27-18.5,46.7-44,46.7H898.6c-41.8,0-76,34.8-76,77.7a74.43,74.43,0,0,0,24.8,55.2l25.1,24.6a48,48,0,0,1,0,67.2l-57.9,57.7a49.56,49.56,0,0,1-68,0l-24.2-24.2c-15.3-16.2-35.3-25-56.2-25-42.2,0-77.9,34.7-77.9,75.9V935a48.65,48.65,0,0,1-13.8,34.3,45.41,45.41,0,0,1-33,14.3H462.3a45.85,45.85,0,0,1-33.2-14.3,49.42,49.42,0,0,1-13.9-34.4V895.4c0-41-35.7-75.9-77.9-75.7h-.1A74.47,74.47,0,0,0,282,844.2l-24.8,24.5a49.09,49.09,0,0,1-33.9,13.5h-.2c-13,0-25.5-5-33.7-13.2h0l-58-57.7a47.38,47.38,0,0,1,0-67l24-23.8a75.09,75.09,0,0,0,25.7-56h0c0-42-34.9-77.5-76-77.5H65.5a49.77,49.77,0,0,1-34.7-13.8,45.13,45.13,0,0,1-14.3-32.7V461.3c0-25.7,22-46.7,48.9-46.7h39.5c41.9,0,76-34.9,76-77.5h0a75.94,75.94,0,0,0-25.5-56l-24-24a47.38,47.38,0,0,1,0-67l58.5-58.4a49,49,0,0,1,33.8-13.5c13,0,25.5,5,33.7,13.2h0l24.9,24.7a74.81,74.81,0,0,0,55.2,24.3c42.2,0,77.9-34.7,77.9-75.9V65.4A49.06,49.06,0,0,1,429.2,31c9.3-9.3,21-14.3,33.5-14.3h79.2M502.1,724.9c124.1,0,225-100.9,225-224.9s-100.9-225-225-225S277.2,375.9,277.2,499.9s100.8,225,224.9,225M541.9,0H462.7c-35.4,0-63.6,30-63.6,65.4v39.5c0,32-27.9,59.2-61.2,59.2a57.91,57.91,0,0,1-43.2-19.3l-25.2-25c-11.5-11.7-28.3-18.2-45.5-18.2h0a66,66,0,0,0-45.5,18.2l-58.7,57.4a64,64,0,0,0,0,90.5h0l24.5,24.5a58.68,58.68,0,0,1,20.3,44c0,33.4-27,60.9-59.4,60.9H65.5C30,397,0,424.9,0,460.4v79.2c0,35.2,30,63.2,65.5,63.2H105c32.4,0,59.4,27.8,59.4,60.9a59.13,59.13,0,0,1-20.4,44l-24.5,24.2a64,64,0,0,0,0,90.5h0l58,57.9C189,892,205.9,898.5,223,898.5h.2a65.79,65.79,0,0,0,45.4-18.2l25.2-25a57.49,57.49,0,0,1,43-19.3h.2c33.4,0,61.2,27,61.2,59.2v39.5c0,35.2,28.2,65.4,63.9,65.4h79.3c35.3,0,63.5-30,63.5-65.4V895.2c0-32,27.8-59.2,61.2-59.2,16.7,0,32.3,7.3,44.2,20l24.5,24.5a66.11,66.11,0,0,0,91,0l58-57.9a64.46,64.46,0,0,0,0-90.9l-25.5-25a57.17,57.17,0,0,1-19.5-43c0-33.3,27-60.9,59.4-60.9h39.5c35.3,0,60.7-27.8,60.7-63.4V460c.5-35.4-24.7-63.4-60.2-63.4H898.7c-32.3,0-59.4-27.9-59.4-60.9a57.17,57.17,0,0,1,19.5-43l25.5-25a64,64,0,0,0,.5-90.4l-.5-.5-58-57.5a66.11,66.11,0,0,0-91,0l-24.5,24.5a59,59,0,0,1-44.2,20h0c-33.3,0-61.2-27-61.2-59V65.4C605.6,30.2,577.3,0,541.9,0ZM502.1,708.2c-115,0-208.3-93.2-208.3-208.3A208.3,208.3,0,1,1,502.1,708.2Z"/><path class="cls-2" d="M502.14,291.6c-115,0-208.25,93.26-208.25,208.32,0,92,59.67,170.09,142.43,197.64,10.42,1.91,14.22-4.52,14.22-10,0-4.94-.18-18-.29-35.43-57.93,12.59-70.15-27.92-70.15-27.92C370.63,600.11,357,593.7,357,593.7c-18.91-12.92,1.43-12.66,1.43-12.66,20.9,1.47,31.9,21.47,31.9,21.47,18.58,31.83,48.74,22.64,60.61,17.3,1.89-13.46,7.27-22.64,13.22-27.84-46.25-5.26-94.86-23.13-94.86-103,0-22.75,8.11-41.34,21.43-55.9-2.14-5.27-9.28-26.45,2.05-55.13,0,0,17.48-5.6,57.26,21.36a197.14,197.14,0,0,1,104.28,0c39.76-27,57.21-21.36,57.21-21.36,11.36,28.68,4.22,49.86,2.07,55.13C626.93,447.68,635,466.27,635,489c0,80-48.69,97.63-95.08,102.78C547.38,598.23,554,611,554,630.38c0,27.85-.25,50.31-.25,57.14,0,5.57,3.75,12.05,14.32,10,82.68-27.6,142.3-105.62,142.3-197.62C710.41,384.86,617.16,291.6,502.14,291.6Z"/></svg>