<svg id="Warstwa_1" data-name="Warstwa 1" xmlns="http://www.w3.org/2000/svg" viewBox="0 0 99.98 97.54"><defs><style>.cls-1,.cls-2{fill:#3bc9db;}.cls-1{fill-rule:evenodd;}</style></defs><path class="cls-1" d="M64.94,97a1.89,1.89,0,0,1-2-1.77v-3c0-2.58.05-6.47.05-10.94,0-3.68-1-6.85-2.81-8.89,10.58-1.34,22.24-5.66,22.24-25a19.73,19.73,0,0,0-5.06-13.53c.65-1.76,2-6.75-.61-13.31l-.09-.22-.22-.07a4.5,4.5,0,0,0-1.27-.14c-1.86,0-6,.68-12.71,5.2a47.85,47.85,0,0,0-24.86,0c-6.73-4.52-10.85-5.2-12.72-5.2a5,5,0,0,0-1.27.14l-.22.07-.09.22c-2.59,6.56-1.25,11.55-.6,13.31a19.73,19.73,0,0,0-5.1,13.52c0,19.38,11.64,23.71,22.2,25.08a11.86,11.86,0,0,0-2.55,6A13.55,13.55,0,0,1,32,79.59c-3.55,0-6.38-1.75-8.4-5.21-.11-.2-2.83-5-8-5.4h0c-.77,0-2.44.11-2.75,1.12-.24.78.43,1.68,2.1,2.83.1,0,3.21,1.59,5.37,7.08,0,0,2.41,7.6,12.28,7.6a22.44,22.44,0,0,0,4.4-.47c0,2,0,3.72,0,5.09s0,2.26,0,2.8a1.89,1.89,0,0,1-1.79,2A1.22,1.22,0,0,1,35,97a3.84,3.84,0,0,1-.76-.08,49.5,49.5,0,1,1,31.39,0A5.06,5.06,0,0,1,64.94,97Z" transform="translate(0.01 0)"/><path class="cls-2" d="M50,1A49,49,0,0,1,65.58,96.47a3.47,3.47,0,0,1-.64.06,1.37,1.37,0,0,1-1.54-1.18,2,2,0,0,1,0-.35V92.24c0-2.58.05-6.48.05-11a14.58,14.58,0,0,0-2.37-8.51c9.88-1.43,21.8-6,21.8-25.42a20.22,20.22,0,0,0-5-13.64,19.39,19.39,0,0,0-.71-13.38L77,19.93l-.45-.15a5.2,5.2,0,0,0-1.42-.16c-1.9,0-6.07.68-12.8,5.16a48.46,48.46,0,0,0-24.68,0c-6.73-4.48-10.9-5.16-12.81-5.16a5.2,5.2,0,0,0-1.42.16l-.45.15-.17.44a19.39,19.39,0,0,0-.71,13.38,20.22,20.22,0,0,0-5,13.64c0,19.37,11.91,24,21.77,25.46a12.72,12.72,0,0,0-2.07,5.23,13.27,13.27,0,0,1-4.82,1c-3.36,0-6-1.67-8-4.94-.11-.22-3-5.29-8.46-5.67h-.09c-1,0-2.79.2-3.19,1.48s1,2.51,2.3,3.39h.13s3,1.5,5.05,6.75c.25.72,3,7.94,12.75,7.94a23.34,23.34,0,0,0,4-.37V95a1.41,1.41,0,0,1-1.29,1.51H34.9a3.15,3.15,0,0,1-.61-.06A49,49,0,0,1,50,1m0-1A50,50,0,0,0,34.2,97.44a4,4,0,0,0,.85.09,2.38,2.38,0,0,0,2.56-2.19,1.93,1.93,0,0,0,0-.34c0-1.18,0-4.33-.07-8.5a23.38,23.38,0,0,1-5,.58c-9.61,0-11.81-7.28-11.81-7.28-2.28-5.78-5.55-7.32-5.55-7.32-4.37-3,0-3,.32-3h0c5,.36,7.66,5.16,7.66,5.16C25.64,78.9,29,80.09,32,80.09a14.32,14.32,0,0,0,5.72-1.31,10.7,10.7,0,0,1,3.17-6.68C29.77,70.84,18.1,66.55,18.1,47.39A19.31,19.31,0,0,1,23.25,34c-.52-1.27-2.23-6.35.49-13.23a4.15,4.15,0,0,1,1.11-.12c1.81,0,5.89.67,12.64,5.24a47.55,47.55,0,0,1,25,0c6.74-4.57,10.81-5.24,12.62-5.24a4.23,4.23,0,0,1,1.12.12c2.72,6.88,1,12,.49,13.23a19.27,19.27,0,0,1,5.14,13.42c0,19.2-11.69,23.43-22.83,24.67,1.8,1.54,3.4,4.59,3.4,9.26,0,6.65,0,12.05,0,13.65a2.36,2.36,0,0,0,2.23,2.5,1.61,1.61,0,0,0,.31,0,4.58,4.58,0,0,0,.9-.09A50,50,0,0,0,50,0Z" transform="translate(0.01 0)"/></svg>