<?xml version="1.0" encoding="utf-8"?>
<!-- Generator: Adobe Illustrator 25.0.0, SVG Export Plug-In . SVG Version: 6.00 Build 0)  -->
<svg version="1.1" id="Warstwa_1" xmlns="http://www.w3.org/2000/svg" xmlns:xlink="http://www.w3.org/1999/xlink" x="0px" y="0px"
	 viewBox="0 0 470.1 97.4" style="enable-background:new 0 0 470.1 97.4;" xml:space="preserve">
<style type="text/css">
	.st0{fill:#3BC9DB;}
	.st1{fill:none;stroke:#51CF66;stroke-width:13;stroke-linecap:round;stroke-linejoin:round;stroke-miterlimit:10;}
</style>
<g>
	<path class="st0" d="M43.7,95.9c-18.1,0-42.2-4.8-42.2-46c0-32.6,12.9-48.4,39.4-48.4c17.1,0,23.6,3.7,24.6,4.3l-3.3,14.1V20
		l-0.6-0.2c-2.8-0.9-7.6-2.5-17-2.5c-12.1,0-25.9,3.6-25.9,31.6c0,21,7.3,31.2,22.2,31.2c7.4,0,10.2-0.9,10.5-1l1-0.3v-21H39.2V43.2
		h30.1v46C67.9,90.1,58.4,95.9,43.7,95.9z"/>
</g>
<path class="st0" d="M40.9,3c13.9,0,20.6,2.5,22.9,3.6L61.1,18c-3-1-7.8-2.2-16.5-2.2c-11.8,0-27.4,3.4-27.4,33.1
	c0,21.7,8,32.7,23.7,32.7c7.6,0,10.6-1,11-1.1l2-0.7V56.3H40.7V44.7h27.1v43.7c-7.4,4.1-15.7,6.1-24.1,6c-12.2,0-21-2.4-27.5-7.6
	C7.5,79.8,3,67.4,3,49.9C3,32,7,19.2,15,11.6C21.1,5.8,29.6,3,40.9,3 M41,0C20.7,0,0,8.6,0,49.9s23.7,47.5,43.7,47.5
	c16.5,0,26.6-7.1,26.6-7.1c0.3-0.3,0.5-0.7,0.5-1.1V43.1c0-0.8-0.6-1.4-1.4-1.4H39.1c-0.8,0-1.4,0.6-1.4,1.4c0,0,0,0,0,0v14.8
	c0,0.8,0.6,1.4,1.4,1.4h11.8v18.4c0,0-2.7,0.9-10,0.9c-8.6,0-20.7-3.1-20.7-29.7s12.6-30.1,24.4-30.1c10.2,0,14.6,1.8,17.4,2.7
	c0.1,0,0.2,0,0.3,0c0.8-0.1,1.3-0.7,1.4-1.4l3.4-14.3c0-0.4-0.2-0.8-0.5-1.1C65.4,3.9,58.5,0,41,0L41,0z"/>
<g>
	<polygon class="st0" points="207,94.1 207,54.5 177.4,54.5 177.4,94.1 160.6,94.1 160.6,5 177.4,5 177.4,39.4 207,39.4 207,5 
		223.9,5 223.9,94.1 	"/>
</g>
<path class="st0" d="M222.4,6.5v86h-13.9V55.9v-3h-32.6v39.6h-13.9V6.5h13.9v34.4h32.6V6.5H222.4 M223.9,3.5h-17
	c-0.8,0-1.4,0.6-1.4,1.4c0,0,0,0.1,0,0.1v32.9h-26.6V5c0-0.8-0.6-1.4-1.4-1.4c0,0,0,0-0.1,0h-17c-0.8,0-1.4,0.6-1.4,1.4c0,0,0,0,0,0
	v89.2c0,0.8,0.6,1.4,1.4,1.4c0,0,0,0,0,0h17c0.8,0,1.4-0.6,1.4-1.4c0,0,0,0,0,0V56h26.6v38.2c0,0.8,0.6,1.4,1.4,1.4c0,0,0,0,0,0H224
	c0.8,0,1.4-0.6,1.4-1.4V5C225.4,4.2,224.8,3.5,223.9,3.5C224,3.5,224,3.5,223.9,3.5z"/>
<g>
	<path class="st0" d="M90.5,26.3c-5.3,0.1-9.6-4.2-9.7-9.5c-0.1-5.3,4.2-9.6,9.5-9.7c5.3-0.1,9.6,4.2,9.7,9.5c0,0,0,0.1,0,0.1
		C100,21.9,95.8,26.2,90.5,26.3C90.5,26.3,90.5,26.3,90.5,26.3z"/>
</g>
<path class="st0" d="M90.5,8.6c4.5-0.1,8.1,3.5,8.2,8c0.1,4.5-3.5,8.1-8,8.2c-4.5,0.1-8.1-3.5-8.2-8c0,0,0-0.1,0-0.1
	C82.5,12.2,86,8.6,90.5,8.6C90.4,8.6,90.5,8.6,90.5,8.6 M90.5,5.6c-6.1-0.1-11.1,4.9-11.2,11s4.9,11.1,11,11.2s11.1-4.9,11.2-11
	c0,0,0-0.1,0-0.1C101.5,10.6,96.7,5.6,90.5,5.6C90.6,5.6,90.5,5.6,90.5,5.6z"/>
<g>
	<path class="st0" d="M82.9,94c-1,0-1-0.2-1-0.8v-59c0,0,0-0.1,0.1-0.1h16.8v59c0,0.2,0,0.5-0.1,0.7l0,0c-0.2,0-0.3,0-0.5,0L82.9,94
		z"/>
</g>
<path class="st0" d="M97.3,35.7v56.8H83.4V35.7H97.3 M98.9,32.7h-17c-0.8,0.1-1.5,0.8-1.5,1.6v59c0,1.7,1.1,2.2,2.5,2.2h15.3
	c1.7,0,2.1-0.8,2.1-2.3V34.2C100.3,33.4,99.7,32.7,98.9,32.7z"/>
<g>
	<path class="st0" d="M257.2,95.9c-15.6,0-22-6-22-20.6V34.4h17v38c0,5.3,1.1,10.2,9.2,10.2c4,0,7.9-1.2,11.3-3.4l0.6-0.4V34.4H290
		v59.7h-10.7c-0.1-0.6-0.3-1.9-0.5-3.1l-0.3-2.4l-2,1.4C276.4,90,267.7,95.9,257.2,95.9z"/>
</g>
<path class="st0" d="M288.5,35.9v56.7h-8c-0.1-0.6-0.2-1.2-0.3-1.8l-0.6-4.8l-4,2.8c-0.1,0-8.3,5.6-18.5,5.6
	c-14.7,0-20.5-5.3-20.5-19.1V35.9h14v36.5c0,5.5,1.2,11.7,10.7,11.7c4.3,0,8.6-1.3,12.2-3.7l1.2-0.9V35.9H288.5 M290.1,32.9h-16.9
	c-0.8,0-1.4,0.6-1.4,1.4c0,0,0,0,0,0V78c-3.1,2-6.7,3.1-10.4,3.1c-6.1,0-7.7-2.8-7.7-8.7V34.3c0-0.8-0.6-1.4-1.4-1.4c0,0,0,0,0,0
	h-17.2c-0.8,0-1.4,0.6-1.4,1.4c0,0,0,0,0,0v41c0,17.7,9.9,22.1,23.5,22.1c11.1,0,20.1-6.2,20.1-6.2c0.1,1.2,0.3,2.4,0.6,3.6
	c0.3,0.5,0.7,0.7,1.2,0.8h10.9c0.8,0,1.4-0.7,1.4-1.4V34.3C291.5,33.5,290.9,32.9,290.1,32.9z"/>
<g>
	<path class="st0" d="M335.8,95.8c-12.4,0-19.1-6.2-19.2-6.2l-2.2-2l-0.4,3c-0.2,1.3-0.4,3-0.5,3.6h-11.7v-89h16.9V38l2.3-1.5
		c4.7-2.7,10-4,15.3-4c15,0,22.3,9.7,22.3,29.6C358.7,91.7,347.7,95.8,335.8,95.8z M330.3,45.6c-0.6,0-1.2,0-1.9,0.1
		c-3.3,0.3-6.5,1.4-9.4,3l-0.7,0.4v29.9l0.7,0.4c3.2,1.9,6.9,3,10.6,3.1h0.9c9.8,0,11.5-6.3,11.5-19.6
		C342,51.3,338.2,45.6,330.3,45.6z"/>
</g>
<path class="st0" d="M317.2,6.5v34.2l4.6-3c4.4-2.5,9.4-3.8,14.5-3.8c5.8,0,10.2,1.5,13.5,4.5c4.9,4.4,7.3,12.4,7.3,23.6
	c0,26.9-8.6,32.4-21.4,32.4c-11.8,0-17.9-5.6-18.2-5.8l-4.4-4.1l-0.7,6c-0.1,0.7-0.2,1.5-0.3,2.2h-8.9V6.5H317.2 M330.5,84.1
	c11,0,13-7.1,13-21.1c0-6.8-1.2-11.6-3.8-14.8c-2.2-2.8-5.4-4.1-9.5-4.1c-0.6,0-1.3,0-2,0.1c-3.5,0.4-6.9,1.5-10,3.3l-1.4,0.9v31.5
	l1.3,0.9c3.5,2.1,7.4,3.2,11.4,3.3L330.5,84.1 M318.8,3.5h-17.1c-0.8,0-1.4,0.6-1.4,1.4c0,0,0,0,0,0v89.2c0,0.8,0.6,1.4,1.4,1.4
	c0,0,0,0,0,0h11.9c0.5,0,1-0.3,1.2-0.8c0.3-1.4,0.6-2.7,0.7-4.1c0,0,7,6.6,20.2,6.6c15.5,0,24.4-7.9,24.4-35.4S346,30.9,336.3,30.9
	c-5.7,0-11.2,1.4-16.1,4.3V5C320.2,4.2,319.6,3.5,318.8,3.5C318.8,3.5,318.8,3.5,318.8,3.5z M330.5,81.1h-0.9
	c-3.5-0.1-6.9-1.1-9.9-2.8V50c2.7-1.5,5.7-2.5,8.7-2.8c0.6,0,1.2-0.1,1.7-0.1c5.4,0,10.2,2.8,10.2,15.9
	C340.5,77.8,338,81.1,330.5,81.1L330.5,81.1z"/>
<g>
	<path class="st0" d="M140,95.7c-10,0-21.5-2.3-21.5-20V47.8h-10.3V37c0.7-0.2,5.9-1.5,9.2-2.2l1.2-0.2V16.4H135
		c0,2.9,0,17.8,0,17.8h14.2v13.6H135v26.6c0,3.1,1.3,8.2,9.9,8.2c1.3,0,2.5-0.1,3.5-0.2c0.4-0.1,0.8-0.1,1.1-0.1v11.9
		C146.4,95.1,143.2,95.6,140,95.7z"/>
</g>
<path class="st0" d="M133.5,17.9c0,4.5,0,14.8,0,14.8v3h14.2v10.6h-14.2v28.1c0,6.1,4.3,9.7,11.4,9.7c1.1,0,2.1-0.1,3-0.2v9.1
	c-2.6,0.7-5.3,1.1-8,1.2c-9.9,0-20-2.2-20-18.5V46.3h-10.3v-8.2l8-2l2.3-0.5V17.9H133.5 M135.4,14.9H118c-0.7,0-1,0.3-1,1v17.4
	c0,0-8.7,2.1-9.3,2.3c-0.6,0.2-1,0.7-1,1.4v11c0,0.8,0.6,1.4,1.4,1.4c0,0,0,0,0,0h8.9v26.3c0,19.6,13.8,21.5,23,21.5
	c3.4-0.1,6.8-0.7,10.1-1.7c0.5-0.2,0.8-0.7,0.8-1.3v-12c0-0.8-0.6-1.4-1.4-1.4c-0.8,0-2.6,0.3-4.6,0.3c-6.3,0-8.4-2.9-8.4-6.7V49.3
	h12.8c0.8,0,1.4-0.6,1.4-1.4c0,0,0,0,0,0V34.2c0-0.8-0.6-1.4-1.4-1.4c0,0,0,0,0,0h-12.8V15.8C136.5,15.2,136.2,14.8,135.4,14.9
	L135.4,14.9z"/>
<g>
	<line class="st1" x1="406.4" y1="78.1" x2="463.6" y2="21"/>
	<polyline class="st1" points="463.6,58 463.6,21 426.6,21 	"/>
</g>
</svg>
