<svg id="Warstwa_1" data-name="Warstwa 1" xmlns="http://www.w3.org/2000/svg" viewBox="0 0 750 724.45"><defs><style>.cls-1{fill:#3bc9db;}.cls-2{fill:#51cf66;}</style></defs><path class="cls-1" d="M234.85,715.12A367.6,367.6,0,1,1,616.49,653c-1.24-3.35-2.53-6.81-4.07-10.33a50,50,0,0,0-4.08-7.15c-.48-.76-1-1.49-1.39-2.2a30.87,30.87,0,0,1-1.7-3.45,42.43,42.43,0,0,0-2.74-5.41,89.71,89.71,0,0,0-5.72-7.84c-1.3-1.64-2.52-3.2-3.59-4.72-8-11.43-16.82-23.54-27.73-38.12-4.31-5.77-9.36-10.54-14.24-15.17-4.57-4.32-8.89-8.4-12.43-13.08l-.37-.48-6.57-6.27c-1.35-1.78-2.7-3.51-4-5.19s-2.73-3.48-4.08-5.28a18.24,18.24,0,0,0-2.76-2.83c-.23-.2-.54-.47-.68-.61-.89-1.24-1.7-2.61-2.56-4.06-1-1.69-2-3.43-3.31-5.22a43.69,43.69,0,0,0-4.15-4.76,28.22,28.22,0,0,1-2.74-3.08c-1.28-1.78-2.51-3.54-3.73-5.3-2-2.93-4.16-6-6.41-8.95l-.36-.47-8.79-8.46-8.16-8.5-1.2-.89c-6-4.43-10.28-7.64-12.32-13.95-1.18-3.66-.72-11.92,1.14-20.57l.13-.6.29-6.09c.19-.45.47-1,.66-1.41.35-.72.72-1.46,1-2.24l.14-.33,1.71-5.71.76-1.17a34.54,34.54,0,0,0,3-5.15c.52-1.19.91-2.3,1.25-3.28a15.46,15.46,0,0,1,1.12-2.74c.08-.14.38-.54.58-.8a18.66,18.66,0,0,0,2.41-3.89c.55-1.3,1.06-2.54,1.56-3.75a52.92,52.92,0,0,1,5-10.14l2.42-2.12.46-.62a29.15,29.15,0,0,1,4-3.9,39.1,39.1,0,0,0,6.07-6.17c1.83-2.44,3.74-5.05,5.41-7.78,4.95-8.12,6.6-18.34,8.19-28.22.66-4.1,1.29-8,2.12-11.64l.13-.57,1-13.57a35.82,35.82,0,0,0,.48-5.32,22.55,22.55,0,0,1,.32-3.73c3.45-15.09,3.5-35.76.14-51.65l-1.27-17.38-.16-.64c-.67-2.65-1.28-5.44-1.92-8.38-1.42-6.57-2.9-13.36-5.3-19.25a55.38,55.38,0,0,1-2-6.36c-1.1-4.1-2.34-8.74-5-12.79C497.25,185.33,489.66,179,485.6,176c-1.75-1.31-3.46-2.76-5.27-4.3a86.3,86.3,0,0,0-10-7.65c-15.67-9.86-33.68-14.85-50.78-19.11a35.71,35.71,0,0,0-8.25-.87,26.85,26.85,0,0,1-5.11-.43,88.25,88.25,0,0,0-17.36-1.5,75.27,75.27,0,0,0-14.33,1.17,17.09,17.09,0,0,1-3.08.18h-.61a29.33,29.33,0,0,0-5,.31l-8.9.32-.67.15a78.07,78.07,0,0,1-13.48,1.27,94.1,94.1,0,0,0-15,1.41l-6.64.32-.64.14a65,65,0,0,1-6.86,1,63,63,0,0,0-11.18,2c-5.41,1.62-11.06,3.6-16.36,5.75l-10.39,3.15-.37.16a44.93,44.93,0,0,0-7.32,4.24c-.87.59-1.7,1.14-2.44,1.59-1.17.72-2.42,1.35-3.75,2a48,48,0,0,0-6.79,4,25.83,25.83,0,0,0-4.28,4.16,16.71,16.71,0,0,1-1.78,1.87l-.34.25c-3.19,2.41-7.15,5.4-9.83,9.39a45.77,45.77,0,0,0-3.65,6.91,40.81,40.81,0,0,1-2.17,4.34l-.37.46a16,16,0,0,0-2.28,3.54,30.73,30.73,0,0,0-1.55,4.75,16.67,16.67,0,0,1-.89,2.8l-1.37,2,0,2.38c.09,7.66,5.86,11.21,9,13.12a16.68,16.68,0,0,1,2.58,1.79,84.29,84.29,0,0,1-3.61,9.6c-.52,1.22-.94,2.22-1.18,2.86l-.79,2.09a119.65,119.65,0,0,1-6,14.29c-.33.64-.85,1.43-1.4,2.27a34.52,34.52,0,0,0-2.94,5.18,67.92,67.92,0,0,0-3.9,14.43c-.37,1.94-.75,3.94-1.21,6-2,8.81,2.09,19.31,4.56,25.58.27.71.53,1.36.74,1.92.15.4.31.82.49,1.24a14.46,14.46,0,0,1,.87,2.61,31.78,31.78,0,0,1-4.43,6c-1.31,1.53-2.66,3.11-3.88,4.83l-.69,1c-5.5,7.79-11.73,16.63-16.43,25.54a66,66,0,0,0-4.87,11.18c-.55,1.67-1.87,5.67-.45,9.53,2.09,9.72,16.45,14.66,16.61,14.71a19.53,19.53,0,0,0,2.82.65,1.55,1.55,0,0,1,0,.21c-2,8.64,2.61,15,5.1,18.42.46.63.89,1.22,1.15,1.64a11.35,11.35,0,0,1,.51,1.1l.32.74a19,19,0,0,0-1.72,4.29,15.29,15.29,0,0,0,.6,8.69,10.79,10.79,0,0,0-1.34,2.59,23.25,23.25,0,0,0-1.1,6.54,15.63,15.63,0,0,1-.31,2.71c-2.07,7.45-6.06,26,1.57,37.76,2.6,4,10.21,10.06,14.2,11.85a32.59,32.59,0,0,0,3.32,1.24,12.3,12.3,0,0,1,2.11.83,79.56,79.56,0,0,0,7.05,3.69c2.18,1.06,4.24,2.05,6.1,3.19s3.59,2.24,5.41,3.39A141.77,141.77,0,0,0,274,509.85c1.76.77,3.49,1.56,5.22,2.35,2.94,1.34,6,2.72,9.05,4,1.69.69,3.26,1.18,4.64,1.62a17.72,17.72,0,0,1,4.39,1.75c4.64,3.11,10.5,10,15.65,18.38,2.86,4.67,4.8,9,5.18,10.95-.18.26-.4.58-.58.82-.36.51-.77,1.09-1.16,1.73-1.6,2.61-3,5.28-4.34,7.87-.6,1.16-1.2,2.31-1.81,3.43-2,3.76-4.14,8.09-5.92,12.18a34.46,34.46,0,0,0-1.4,4,13,13,0,0,1-1,2.65c-.23.38-.6.9-1,1.45a30.13,30.13,0,0,0-2.37,3.68,20.92,20.92,0,0,0-1.33,3.36c-.1.31-.23.73-.31.9-1,1.63-2.24,3.32-3.55,5.1-1.43,2-2.92,4-4.25,6.13a45.07,45.07,0,0,0-3.64,7.93,32.79,32.79,0,0,1-2.34,5.28c-2.63,4.3-5.44,8.74-8.15,13-3.34,5.28-6.79,10.74-10.05,16.15a37.25,37.25,0,0,0-3.64,9.19,39.46,39.46,0,0,1-1.52,4.54c-1.2,2.75-2.65,5.55-4.18,8.5s-3.19,6.17-4.59,9.36c-1.12,2.56-2,5-2.74,7.34-.73,2.14-1.41,4.17-2.28,6.14a61.33,61.33,0,0,1-3,5.74,72.32,72.32,0,0,0-3.89,7.49,30,30,0,0,0-1.52,4.85,18.11,18.11,0,0,1-.71,2.45C236.24,711.64,235.56,713.32,234.85,715.12Z" transform="translate(-0.5 -0.5)"/><path class="cls-2" d="M375.5,15.5a360,360,0,0,1,244,624.67c-.08-.19-.16-.37-.25-.56a58.43,58.43,0,0,0-4.65-8.21c-.48-.74-.93-1.44-1.29-2s-.76-1.52-1.24-2.59a49.21,49.21,0,0,0-3.24-6.35,95.71,95.71,0,0,0-6.19-8.5c-1.23-1.56-2.39-3-3.34-4.39-8.06-11.49-16.92-23.67-27.86-38.3-4.7-6.28-10-11.29-15.1-16.12-4.34-4.11-8.44-8-11.6-12.16l-.73-1-.88-.84-5.7-5.43c-1.26-1.65-2.5-3.24-3.71-4.79-1.39-1.78-2.7-3.45-4-5.19a25.62,25.62,0,0,0-3.76-3.91c-.56-.84-1.13-1.8-1.77-2.89-1-1.74-2.19-3.71-3.68-5.78a48.6,48.6,0,0,0-4.85-5.59,29.16,29.16,0,0,1-2-2.24c-1.24-1.73-2.48-3.51-3.68-5.23-2.08-3-4.23-6.07-6.57-9.17l-.71-.94-.85-.83-4.3-4.13-4-3.82L486,471.27l-.86-.89-1-.74-.71-.53c-6.19-4.6-8.46-6.54-9.65-10.22-.53-1.79-.47-8.33,1.33-16.7l.26-1.21.06-1.23.19-4c.38-.78.81-1.66,1.22-2.66l.27-.67.21-.7.65-2.18.65-2.15.15-.23a42.21,42.21,0,0,0,3.56-6.26c.64-1.46,1.1-2.77,1.46-3.83.15-.43.34-1,.47-1.3l.15-.2a25.68,25.68,0,0,0,3.3-5.44c.57-1.32,1.1-2.6,1.61-3.84a55,55,0,0,1,3.76-8l1.07-.94,1.16-1,.93-1.23a26.6,26.6,0,0,1,2.92-2.77,45.83,45.83,0,0,0,7.17-7.35c1.93-2.58,4-5.36,5.79-8.36,5.72-9.37,7.49-20.33,9.2-30.93.64-4,1.24-7.73,2-11.16l.26-1.13.08-1.16.27-3.93.6-8.66a42.68,42.68,0,0,0,.52-6c0-.83.08-2,.15-2.33,3.69-16.14,3.77-37.34.26-54.36l-.75-10.3-.43-5.92-.1-1.32-.32-1.28c-.64-2.53-1.23-5.25-1.86-8.13-1.49-6.89-3-14-5.69-20.5a51.11,51.11,0,0,1-1.66-5.46c-1.17-4.41-2.64-9.9-5.95-14.95-5.79-8.86-14.13-15.79-18.58-19.14-1.57-1.18-3.2-2.56-4.92-4a93.65,93.65,0,0,0-10.84-8.28c-16.6-10.46-35.26-15.64-53-20.05a42.89,42.89,0,0,0-9.9-1.09,22.68,22.68,0,0,1-3.66-.25c-6.86-1.52-15.56-1.68-19-1.68a83.39,83.39,0,0,0-15.77,1.31c-.36,0-1.28,0-1.64,0h-.61a38.68,38.68,0,0,0-5.72.33l-7.76.28-1.37.05-1.34.3A74.11,74.11,0,0,1,342.5,138a101.43,101.43,0,0,0-15.64,1.44l-2.17.1-3.25.15-1.31.07-1.28.28c-1.62.37-3.77.61-6,.87a69.44,69.44,0,0,0-12.5,2.21c-5.52,1.65-11.28,3.67-16.71,5.86l-4.51,1.37-5.17,1.57-.77.23-.75.32a51.3,51.3,0,0,0-8.56,4.91c-.8.54-1.56,1-2.16,1.42-.92.56-2,1.11-3.24,1.74a54.77,54.77,0,0,0-7.81,4.58,32.39,32.39,0,0,0-5.53,5.31l-.88,1-.09.07c-3.45,2.59-8.17,6.15-11.55,11.19a53.58,53.58,0,0,0-4.25,8c-.56,1.23-1.05,2.31-1.53,3.17l-.05,0a23.56,23.56,0,0,0-3.27,5.18,37.52,37.52,0,0,0-1.94,5.86c-.1.38-.22.84-.32,1.19L219,209.33l.06,4.79c.1,9.53,6,15,10.06,17.81-.59,1.47-1.19,2.87-1.53,3.68-.55,1.27-1,2.27-1.3,3.14l-.79,2.11a116.65,116.65,0,0,1-5.65,13.42c-.18.33-.66,1.08-1.05,1.68a40.58,40.58,0,0,0-3.56,6.33,73.84,73.84,0,0,0-4.37,16c-.37,2-.72,3.8-1.15,5.69-2.55,11.07,2.1,22.92,4.88,30,.27.67.51,1.28.71,1.82l.06.17c-.59.73-1.25,1.5-1.81,2.16-1.36,1.59-2.89,3.38-4.31,5.39l-.69,1c-5.63,8-12,17-16.93,26.37a73.14,73.14,0,0,0-5.37,12.35c-1.71,5.18-1.89,9.84-.55,13.9,2.49,10.45,13.3,16.35,18.62,18.67.26,8,4.27,13.87,6.69,17.22-.22.62-.42,1.29-.6,2a21,21,0,0,0-.14,9.58c-.15.34-.28.69-.41,1.06a30.43,30.43,0,0,0-1.51,8.55c0,.46-.06,1.08-.1,1.37-2.36,8.57-6.66,29.5,2.57,43.67,3.52,5.41,12.26,12.29,17.42,14.59a39.2,39.2,0,0,0,4,1.52l.9.3c2.54,1.53,5.1,2.76,7.37,3.86,2,1,3.9,1.89,5.45,2.83,1.71,1.05,3.45,2.15,5.29,3.32,5.86,3.72,12.5,7.93,19.69,11.09,1.7.75,3.37,1.51,5.14,2.32,3,1.36,6.1,2.78,9.3,4.09,2,.82,3.8,1.39,5.25,1.85.9.28,2.11.66,2.51.86,3.68,2.49,8.92,8.77,13.38,16a59,59,0,0,1,3.23,6c-1.65,2.72-3.1,5.51-4.39,8-.59,1.13-1.17,2.24-1.75,3.32-2.14,4-4.34,8.48-6.21,12.76a41.07,41.07,0,0,0-1.7,4.82c-.11.38-.26.86-.36,1.17l-.51.7a37,37,0,0,0-2.94,4.6,26.54,26.54,0,0,0-1.79,4.46c-.8,1.21-1.78,2.54-2.8,3.94-1.52,2.08-3.09,4.22-4.57,6.61a51.38,51.38,0,0,0-4.29,9.23,28,28,0,0,1-1.71,4c-2.61,4.26-5.4,8.68-8.1,13-3.36,5.31-6.83,10.8-10.13,16.28a43.74,43.74,0,0,0-4.42,11,34.76,34.76,0,0,1-1.19,3.64c-1.1,2.52-2.5,5.21-4,8.05-1.63,3.14-3.31,6.38-4.8,9.81-1.25,2.85-2.17,5.55-3,7.93-.68,2-1.31,3.86-2.05,5.54-.62,1.44-1.62,3.18-2.67,5a77.27,77.27,0,0,0-4.28,8.27,33.73,33.73,0,0,0-1.7,5.17,360,360,0,0,1,145-689.6m0-15C168.39.5.5,168.39.5,375.5c0,159,99,294.9,238.68,349.45,1.41-4.05,3.06-8.17,4.6-11.93,1-2.48,1.14-4.73,2.2-7.21,1.89-4.42,5-8.75,6.89-13.16s3-8.95,5-13.48c2.6-6,6.18-11.92,8.78-17.87,1.83-4.19,2.38-9,4.7-12.86,5.89-9.75,12.3-19.54,18.18-29.15,2.53-4.13,3.41-9,6-13.17,2.35-3.79,5.49-7.49,7.84-11.28.9-1.46,1.07-3.15,1.88-4.7s2.22-3.19,3.13-4.71c1.4-2.31,1.72-5,2.82-7.52,1.65-3.77,3.63-7.88,5.65-11.6,1.91-3.53,3.78-7.41,5.95-11,.88-1.45,2.45-3.09,2.82-5,.83-4.28-4.69-13.74-6.27-16.3-4.37-7.13-11.1-16.15-17.87-20.69-3.1-2.08-6.58-2.53-10.34-4.08-4.71-1.93-9.34-4.17-14.11-6.27-8.17-3.59-15.81-9-23.2-13.48-4.28-2.62-9-4.38-13.16-6.89-2-1.2-4.07-1.53-6.27-2.51-2.89-1.29-9.29-6.51-11-9.09-5.18-7.95-3.2-22.42-.63-31.66.81-2.94.31-6.09,1.25-8.78.35-1,1.56-2,1.88-2.82,1.08-2.83-1.81-5.64-.94-9.09.66-2.59,2.39-4.36,3.14-6.59-1.69-1.31-2-3.44-3.14-5.33-2.09-3.38-6.86-7.83-5.33-14.42.3-1.27.56-3.75,1.26-5s1.56-1,1.88-2.82a3.57,3.57,0,0,1-.63-.95c-3.15-.27-7.45,0-10.34-.94-3.5-1.09-11.39-5.64-11.6-9.71-.9-1.37,0-4,.31-5a58.8,58.8,0,0,1,4.39-10c4.66-8.84,10.91-17.62,16.61-25.71,2.78-3.94,7-7.72,9.1-12.22,1.54-3.39-.29-6.82-1.26-9.41-1.86-5-6.72-15.74-5-23.2,1.61-7,2.15-13.16,4.7-19.12,1-2.33,2.89-4.66,4.07-6.9,2.92-5.51,4.88-11,7.21-17.24,1-2.75,6-13.13,5.33-16.3-1.53-7.38-11.52-6.87-11.6-13.79,1.68-2.41,1.93-6.06,3.14-8.78a31.93,31.93,0,0,1,2.19-3.14c2.22-3.62,3.31-7.49,5.65-11,2.05-3.06,5.52-5.61,8.46-7.84,2.16-1.63,3.77-4.36,6-5.95,3.14-2.29,6.61-3.56,10-5.65,2.74-1.67,5.74-4,8.78-5.32l10.34-3.14c5-2,10.57-4,16-5.64s12-1.57,17.56-2.82l6.58-.32c9.08-2,19.84-.76,29.15-2.82l8.78-.31a20.1,20.1,0,0,1,4.17-.29h.61a22.37,22.37,0,0,0,4.63-.34,67.71,67.71,0,0,1,12.78-1,82.09,82.09,0,0,1,15.74,1.32c4.66,1,8.78.16,13.17,1.26,18.53,4.62,34.57,9.35,48.59,18.18,5.4,3.4,9.79,7.89,14.74,11.6,5.48,4.12,11.27,9.6,15,15.36,3.28,5,3.89,12,6.27,17.87,3.17,7.75,4.68,17.89,6.9,26.65q.63,8.61,1.25,17.24c3.19,14.64,3.31,34.43,0,48.9-.74,3.25-.28,6.76-.94,9.72q-.47,6.74-.94,13.48c-2.91,12.78-3.38,27.75-9.4,37.62-1.5,2.46-3.28,4.89-5,7.21-2.79,3.74-7.14,6.21-10,10l-2.51,2.2c-3.55,4.87-5.22,9.91-7.83,16a36.7,36.7,0,0,1-2.51,3.76c-1.31,2.15-1.78,4.52-2.82,6.89a66.3,66.3,0,0,1-3.77,6.27q-.93,3.13-1.88,6.27a53.13,53.13,0,0,0-2.19,5c-.11,2.19-.21,4.39-.32,6.58-1.39,6.48-3,17.91-.94,24.46,2.88,8.9,9,13.17,15.68,18.18l7.84,8.15,8.46,8.15c3.49,4.62,6.59,9.3,10,14.11,2,2.75,4.92,5.08,6.9,7.83,2.21,3.08,3.74,6.34,6,9.41.9,1.24,2.52,2.22,3.44,3.45,2.82,3.74,5.65,7.22,8.47,11l6.58,6.27c7.88,10.42,18.85,17.79,26.65,28.21,9.36,12.53,18.51,25,27.59,37.94,2.84,4.06,6.45,8,9.09,12.22,1.78,2.86,2.63,5.89,4.39,8.78,1.59,2.63,3.76,5.6,5,8.46,2.94,6.73,5,13.47,7.79,19.82C697.08,596.66,750.5,492.32,750.5,375.5c0-207.11-167.89-375-375-375Z" transform="translate(-0.5 -0.5)"/></svg>