<svg id="Warstwa_1" data-name="Warstwa 1" xmlns="http://www.w3.org/2000/svg" viewBox="0 0 750 724.45"><defs><style>.cls-1{fill:#3bc9db;}</style></defs><path class="cls-1" d="M243.78,713c1-2.48,1.14-4.73,2.2-7.21,1.89-4.42,5-8.75,6.89-13.16s3-8.95,5-13.48c2.6-6,6.18-11.92,8.78-17.87,1.83-4.19,2.38-9,4.7-12.86,5.89-9.75,12.3-19.54,18.18-29.15,2.53-4.13,3.41-9,6-13.17,2.35-3.79,5.49-7.49,7.84-11.28.9-1.46,1.07-3.15,1.88-4.7s2.22-3.19,3.13-4.71c1.4-2.31,1.72-5,2.82-7.52,1.65-3.77,3.63-7.88,5.65-11.6,1.91-3.53,3.78-7.41,5.95-11,.88-1.45,2.45-3.09,2.82-5,.83-4.28-4.69-13.74-6.27-16.3-4.37-7.13-11.1-16.15-17.87-20.69-3.1-2.08-6.58-2.53-10.34-4.08-4.71-1.93-9.34-4.17-14.11-6.27-8.17-3.59-15.81-9-23.2-13.48-4.28-2.62-9-4.38-13.16-6.89-2-1.2-4.07-1.53-6.27-2.51-2.89-1.29-9.29-6.51-11-9.09-5.18-7.95-3.2-22.42-.63-31.66.81-2.94.31-6.09,1.25-8.78.35-1,1.56-2,1.88-2.82,1.08-2.83-1.81-5.64-.94-9.09.66-2.59,2.39-4.36,3.14-6.59-1.69-1.31-2-3.44-3.14-5.33-2.09-3.38-6.86-7.83-5.33-14.42.3-1.27.56-3.75,1.26-5s1.56-1,1.88-2.82a3.57,3.57,0,0,1-.63-.95c-3.15-.27-7.45,0-10.34-.94-3.5-1.09-11.39-5.64-11.6-9.71-.9-1.37,0-4,.31-5a58.8,58.8,0,0,1,4.39-10c4.66-8.84,10.91-17.62,16.61-25.71,2.78-3.94,7-7.72,9.1-12.22,1.54-3.39-.29-6.82-1.26-9.41-1.86-5-6.72-15.74-5-23.2,1.61-7,2.15-13.16,4.7-19.12,1-2.33,2.89-4.66,4.07-6.9,2.92-5.51,4.88-11,7.21-17.24,1-2.75,6-13.13,5.33-16.3-1.53-7.38-11.52-6.87-11.6-13.79,1.68-2.41,1.93-6.06,3.14-8.78a31.93,31.93,0,0,1,2.19-3.14c2.22-3.62,3.31-7.49,5.65-11,2.05-3.06,5.52-5.61,8.46-7.84,2.16-1.63,3.77-4.36,6-5.95,3.14-2.29,6.61-3.56,10-5.65,2.74-1.67,5.74-4,8.78-5.32l10.34-3.14c5-2,10.57-4,16-5.64s12-1.57,17.56-2.82l6.58-.32c9.08-2,19.84-.76,29.15-2.82l8.78-.31c2.84-.6,6.27,0,9.41-.63,7.35-1.55,21.55-1.23,28.52.31,4.66,1,8.78.16,13.17,1.26,18.53,4.62,34.57,9.35,48.59,18.18,5.4,3.4,9.79,7.89,14.74,11.6,5.48,4.12,11.27,9.6,15,15.36,3.28,5,3.89,12,6.27,17.87,3.17,7.75,4.68,17.89,6.9,26.65q.63,8.61,1.25,17.24c3.19,14.64,3.31,34.43,0,48.9-.74,3.25-.28,6.76-.94,9.72q-.47,6.74-.94,13.48c-2.91,12.78-3.38,27.75-9.4,37.62-1.5,2.46-3.28,4.89-5,7.21-2.79,3.74-7.14,6.21-10,10l-2.51,2.2c-3.55,4.87-5.22,9.91-7.83,16a36.7,36.7,0,0,1-2.51,3.76c-1.31,2.15-1.78,4.52-2.82,6.89a66.3,66.3,0,0,1-3.77,6.27q-.93,3.13-1.88,6.27a53.13,53.13,0,0,0-2.19,5c-.11,2.19-.21,4.39-.32,6.58-1.39,6.48-3,17.91-.94,24.46,2.88,8.9,9,13.17,15.68,18.18l7.84,8.15,8.46,8.15c3.49,4.62,6.59,9.3,10,14.11,2,2.75,4.92,5.08,6.9,7.83,2.21,3.08,3.74,6.34,6,9.41.9,1.24,2.52,2.22,3.44,3.45,2.82,3.74,5.65,7.22,8.47,11l6.58,6.27c7.88,10.42,18.85,17.79,26.65,28.21,9.36,12.53,18.51,25,27.59,37.94,2.84,4.06,6.45,8,9.09,12.22,1.78,2.86,2.63,5.89,4.39,8.78,1.59,2.63,3.76,5.6,5,8.46,2.94,6.73,5,13.47,7.79,19.82C697.08,596.66,750.5,492.32,750.5,375.5c0-207.11-167.89-375-375-375S.5,168.39.5,375.5c0,159,99,294.9,238.68,349.45C240.59,720.9,242.24,716.78,243.78,713Z" transform="translate(-0.5 -0.5)"/></svg>