<svg id="Warstwa_1" data-name="Warstwa 1" xmlns="http://www.w3.org/2000/svg" viewBox="0 0 362.8 411.4"><defs><style>.cls-1{fill:#e44d26;}.cls-2{fill:#ebebeb;}.cls-3{fill:#fff;}.cls-4{fill:#264de4;}.cls-5{fill:none;}</style></defs><path class="cls-1" d="M33,370.4,0,0H362.8l-33,370.2L181.1,411.4"/><path class="cls-2" d="M67.4,75.7h114v45.4H117.2l4.2,46.5h60v45.3H79.8m2,22.8h45.6l3.2,36.3,50.8,13.6V333L88.2,307"/><path class="cls-3" d="M295,75.7H181.2v45.4H290.8m-4.1,46.5H181.2V213h56l-5.3,59-50.7,13.6v47.2l93-25.8"/><polygon id="polygon3005" class="cls-3" points="237.12 213.02 231.84 271.91 181.16 285.58 181.16 332.83 274.32 307.03 275 299.36 285.68 179.8 286.79 167.6 294.99 75.69 181.16 75.69 181.16 121.1 245.19 121.1 241.06 167.6 181.16 167.6 181.16 213.02 237.12 213.02"/><polygon class="cls-4" points="181.16 0 181.16 75.69 294.99 75.69 274.32 307.03 181.16 332.83 181.1 411.4 329.73 370.22 362.8 0 181.16 0"/><polygon class="cls-4" points="181.16 121.1 245.19 121.1 241.06 167.6 181.16 167.6 181.16 121.1"/><polygon class="cls-4" points="181.16 213.02 237.12 213.02 231.84 271.91 181.16 285.58 181.16 213.02"/><polygon class="cls-5" points="181.16 332.83 274.32 307.03 294.99 75.69 181.16 75.69 181.16 121.1 245.19 121.1 241.06 167.6 181.16 167.6 181.16 213.02 237.12 213.02 231.84 271.91 181.16 285.58 181.16 332.83"/></svg>