<?xml version="1.0" encoding="utf-8"?>
<!-- Generator: Adobe Illustrator 25.0.0, SVG Export Plug-In . SVG Version: 6.00 Build 0)  -->
<svg version="1.1" xmlns="http://www.w3.org/2000/svg" xmlns:xlink="http://www.w3.org/1999/xlink" x="0px" y="0px"
	 viewBox="0 0 741.6 726.4" style="enable-background:new 0 0 741.6 726.4;" xml:space="preserve">
<style type="text/css">
	.st0{fill:#DD0031;}
	.st1{fill:#C3002F;}
	.st2{fill:#FFFFFF;}
	.st3{fill:#CF649A;}
	.st4{fill:#264DE4;}
	.st5{fill:#2965F1;}
	.st6{fill:#EBEBEB;}
	.st7{fill:#E44D26;}
	.st8{fill:#F16529;}
	.st9{fill:#F7DF1E;}
	.st10{stroke:#000000;stroke-miterlimit:10;}
	.st11{fill:#3178C6;}
	.st12{fill-rule:evenodd;clip-rule:evenodd;fill:#FFFFFF;}
	.st13{fill:#330000;}
	.st14{fill:#FF9A00;}
	.st15{fill:#470137;}
	.st16{fill:#FF61F6;}
	.st17{fill:#001E36;}
	.st18{fill:#31A8FF;}
	.st19{fill:#0ACF83;}
	.st20{fill:#A259FF;}
	.st21{fill:#F24E1E;}
	.st22{fill:#FF7262;}
	.st23{fill:#1ABCFE;}
	.st24{fill:#55FF63;}
	.st25{font-family:'Arial-BoldMT';}
	.st26{font-size:12.0752px;}
	.st27{fill:none;stroke:#000000;stroke-miterlimit:10;}
	.st28{fill:none;stroke:#55FF63;stroke-width:3;stroke-miterlimit:10;}
	.st29{fill:none;stroke:#3BC9DB;stroke-width:3;stroke-linecap:round;stroke-linejoin:round;stroke-miterlimit:10;}
	.st30{fill:none;stroke:#3BC9DB;stroke-width:7;stroke-miterlimit:10;}
	.st31{opacity:0.25;fill:none;stroke:#3BC9DB;stroke-miterlimit:10;}
	.st32{opacity:0.25;fill:#FFFFFF;stroke:#3BC9DB;stroke-miterlimit:10;}
	.st33{fill:none;stroke:#55FF63;stroke-width:5;stroke-linejoin:round;stroke-miterlimit:10;}
</style>
<g id="Warstwa_1">
	<polygon class="st0" points="711.6,475.8 711.6,475.8 711.6,475.8 683.7,485.8 688,522.7 711.6,535.8 711.6,535.8 711.6,535.8 
		735.3,522.7 739.6,485.8 	"/>
	<polygon class="st1" points="711.6,475.8 711.6,482.5 711.6,482.5 711.6,512.9 711.6,512.9 711.6,535.8 711.6,535.8 735.3,522.7 
		739.6,485.8 	"/>
	<path class="st2" d="M711.6,482.5l-17.4,39.1h6.5l3.5-8.8H719l3.5,8.8h6.5L711.6,482.5L711.6,482.5z M716.7,507.5h-10.2l5.1-12.3
		L716.7,507.5z"/>
	<path class="st3" d="M313.1,34.3c-2.5,0-5,0.6-7.2,1.7c-0.7-1.2-1.3-2.4-1.7-3.7c-0.2-1-0.3-2.1-0.1-3.2c0.2-1.2,0.6-2.3,0.9-3.4
		c0-0.1-0.2-0.8-1.8-0.8s-3,0.3-3.1,0.7c-0.3,0.8-0.5,1.6-0.7,2.4c-0.3,1.5-3.2,6.7-4.9,9.4c-0.5-0.9-0.9-1.8-1.1-2.8
		c-0.2-1-0.3-2.1-0.1-3.2c0.2-1.2,0.6-2.3,0.9-3.4c0-0.1-0.2-0.8-1.8-0.8s-3,0.3-3.1,0.7s-0.3,1.4-0.7,2.4s-4.2,9.7-5.2,11.9
		c-0.5,1.2-1,2.1-1.3,2.7s0,0,0,0.1c-0.3,0.5-0.4,0.8-0.4,0.8l0,0c-0.2,0.4-0.5,0.8-0.6,0.8c-0.2-0.8-0.2-1.7,0-2.5
		c0.6-3,2-7.7,1.9-7.9s0.3-0.9-0.9-1.3c-0.6-0.3-1.2-0.2-1.6,0.3c-0.1,0-0.2,0.2-0.2,0.2s1.2-5.3-2.4-5.3c-2.3,0-5.5,2.5-7,4.8
		c-1,0.5-3.1,1.7-5.4,3l-2.6,1.4l-0.2-0.2c-4.5-4.8-12.8-8.1-12.4-14.5c0.1-2.3,0.9-8.5,15.8-16c12.2-6.1,22-4.5,23.7-0.8
		c2.4,5.3-5.2,15.2-17.9,16.7c-4.8,0.6-7.4-1.3-8-2s-0.8-0.8-1-0.6c-0.4,0.2-0.2,0.9,0,1.3c1,1.8,2.6,3.1,4.6,3.6
		c2.3,0.8,8,1.2,14.9-1.5c7.7-3,13.7-11.3,11.9-18.2S280.8-2,269.8,2c-6.6,2.4-13.7,6-18.8,10.8c-6.1,5.7-7,10.7-6.6,12.7
		c1.4,7.4,11.6,12.1,15.7,15.6l-0.6,0.3c-2,1-9.7,5.1-11.7,9.4c-2.2,4.8,0.4,8.3,2.1,8.8c5.2,1.4,10.6-1.2,13.4-5.5
		s2.5-9.9,1.2-12.4l0-0.1l1.6-0.9c1-0.6,2-1.2,2.9-1.7c-0.6,1.7-0.9,3.5-1,5.3c-0.2,2.8,0.9,6.3,2.4,7.7c0.5,0.5,1.2,0.7,1.9,0.6
		c1.7,0,2.5-1.4,3.4-3.1c1-2.1,2-4.5,2-4.5s-1.1,6.5,2,6.5c1.2,0,2.3-1.5,2.9-2.3l0,0l0.1-0.2l0.2-0.3l0,0c0.5-0.8,1.5-2.7,3.1-5.8
		c2-4,3.9-8.9,3.9-8.9c0.2,1.1,0.5,2.2,0.8,3.2c0.5,1.3,1,2.5,1.6,3.7c-0.5,0.7-0.8,1-0.8,1l0,0c-0.4,0.5-0.8,1-1.2,1.6
		c-1.3,1.5-2.6,3.1-3.7,4.7c-0.4,0.6-0.2,1.3,0.4,1.7c0.6,0.3,1.3,0.4,2,0.3c1-0.1,2-0.3,2.9-0.7c0.9-0.3,1.7-0.7,2.4-1.3
		c1.6-1.1,2.5-3,2.4-5c-0.1-1.2-0.4-2.4-0.9-3.5c0.1-0.2,0.3-0.4,0.4-0.6c1.6-2.4,3.1-5,4.4-7.6c0.2,1.1,0.5,2.2,0.8,3.2
		c0.4,1.1,0.9,2.2,1.4,3.2c-1.9,1.5-3.3,3.4-4.2,5.5c-0.9,2.7-0.2,3.9,1.2,4.1c0.7,0,1.5-0.1,2.1-0.4c1-0.3,1.9-0.8,2.7-1.4
		c1.5-1.2,3-2.8,3-4.9c-0.1-1-0.3-2-0.7-2.9c2.5-1,5.1-1.3,7.7-0.9c7,0.8,8.3,5.1,8.1,6.9c-0.3,1.3-1,2.4-2.2,3.1
		c-0.5,0.3-0.6,0.4-0.6,0.6s0.3,0.3,0.7,0.2c2.1-0.7,3.6-2.6,3.7-4.8C324.4,38.9,320.3,34.2,313.1,34.3L313.1,34.3z M259.6,52.5
		c-2.3,2.5-5.5,3.5-6.9,2.7s-0.9-4.6,1.9-7.2c1.7-1.5,3.5-2.9,5.4-4.1l1.4-0.9l0.1-0.1l0.4-0.2C263,46.2,262.1,49.9,259.6,52.5
		L259.6,52.5z M276.3,41.1c-0.8,1.9-2.5,7-3.5,6.7s-1.4-4-0.2-7.8c0.6-1.8,1.5-3.5,2.7-5c1.3-1.4,2.6-1.9,3-1.3
		C278.7,34.4,276.8,39.8,276.3,41.1z M290.2,47.6c-0.3,0.2-0.6,0.3-0.8,0.2s0.1-0.3,0.1-0.3s1.7-1.9,2.4-2.7l1.4-1.7v0.2
		C293.3,45.5,291.2,47,290.2,47.6z M300.9,45.2c-0.2-0.2-0.2-0.8,0.6-2.6c0.6-1.2,1.4-2.2,2.4-3.1c0.2,0.4,0.2,0.9,0.2,1.3
		C304.1,42.9,302.8,44.6,300.9,45.2L300.9,45.2z"/>
	<g id="layer1">
		<g id="g3013">
			<polygon id="polygon2989" class="st4" points="220,44.1 216,87.4 198.6,92.2 181.3,87.3 177.5,43.9 			"/>
			<polygon id="polygon2991" class="st5" points="212.7,84.6 216.1,47.6 198.8,47.5 198.6,88.5 			"/>
			<polygon id="polygon2993" class="st6" points="186.3,63.6 186.8,68.9 198.7,68.9 198.7,63.6 			"/>
			<polygon id="polygon2995" class="st6" points="198.8,52.9 198.7,52.9 185.4,52.8 185.9,58.1 198.7,58.2 			"/>
			<polygon id="polygon2997" class="st6" points="198.7,83 198.7,77.4 198.6,77.4 192.7,75.8 192.4,71.6 189.5,71.6 187,71.6 
				187.8,79.9 198.6,83 			"/>
			<path id="path2999" d="M187.6,32.2h6.4v2.7h-3.7v2.7h3.8v2.7h-6.4L187.6,32.2z"/>
			<path id="path3001" d="M195.3,32.2h6.4v2.3H198V35h3.7v5.4h-6.4v-2.4h3.8v-0.5h-3.8V32.2z"/>
			<path id="path3003" d="M203,32.2h6.4v2.4h-3.7v0.5h3.7v5.4H203V38h3.8v-0.5H203L203,32.2z"/>
			<polygon id="polygon3005" class="st2" points="205.2,69 204.6,75.9 198.6,77.4 198.6,83 209.6,80 209.6,79.1 210.9,65.1 
				211.1,63.7 212.1,52.9 198.7,52.9 198.7,58.2 206.2,58.2 205.7,63.7 198.7,63.6 198.7,68.9 			"/>
		</g>
	</g>
	<path d="M47.5,184.1h2.7v2.7h2.5v-2.7l2.7-0.1l0.1,8.1h-2.7v-2.7h-2.4v2.7h-2.7 M58.9,186.5h-2.4l-0.1-2.7l7.4-0.1v2.7h-2.4
		l0.1,5.4H59 M65.1,183.6h2.8l1.8,2.8l1.7-2.9l2.8-0.1l0.1,8.1h-2.7l-0.1-4l-1.8,2.9l-1.9-2.9l0.1,4h-2.6 M75.5,183.4h2.7l0.1,5.4
		l3.8-0.1v2.7l-6.5,0.1"/>
	<path class="st7" d="M48.3,239.1l-4.5-43.2l42.4-0.7l-3.2,43.3l-17.3,5.1"/>
	<path class="st8" d="M65.6,239.9L65,199.1l17.3-0.3l-2.7,37"/>
	<path class="st6" d="M51.8,204.6l13.3-0.2l0.1,5.3l-7.5,0.1l0.6,5.4l7-0.1l0.1,5.3l-11.9,0.2 M53.7,223.3l5.3-0.1l0.4,4.2l6,1.5
		l0.1,5.5l-10.9-2.9"/>
	<path class="st2" d="M78.3,204.1L65,204.4l0.1,5.3l12.8-0.2 M77.5,214.9l-12.3,0.2l0.1,5.3l6.5-0.1l-0.5,6.9l-5.9,1.7l0.1,5.5
		l10.8-3.2"/>
	
		<rect x="495.5" y="2.4" transform="matrix(1 -4.537840e-03 4.537840e-03 1 -0.1408 2.3844)" class="st9" width="59.7" height="59.7"/>
	<path class="st10" d="M535.7,48.9c1.2,2,2.8,3.4,5.5,3.4c2.3,0,3.8-1.2,3.8-2.8c0-1.9-1.5-2.6-4.1-3.7l-1.4-0.6
		c-4.1-1.7-6.8-3.9-6.8-8.4c0-4.2,3.2-7.4,8.2-7.5c3.6,0,6.1,1.2,8,4.5l-4.4,2.8c-1-1.7-2-2.4-3.6-2.4c-1.3-0.1-2.5,0.8-2.7,2.2
		c0,0.1,0,0.1,0,0.2c0,1.7,1.1,2.4,3.5,3.4l1.4,0.6c4.8,2,7.5,4.1,7.5,8.8c0,5.1-3.9,7.8-9.3,7.9s-8.6-2.4-10.2-5.7L535.7,48.9z
		 M515.9,49.5c0.9,1.6,1.7,2.9,3.6,2.9s3-0.7,3-3.5l-0.1-19.1h5.6l0.1,19.2c0,5.8-3.4,8.5-8.3,8.5c-3.6,0.2-6.9-1.8-8.4-5.1
		L515.9,49.5z"/>
	<path class="st11" d="M687.5,185.1h48.3c3.2,0,5.9,2.6,5.9,5.9v48.3c0,3.2-2.6,5.9-5.9,5.9h-48.3c-3.2,0-5.9-2.6-5.9-5.9v-48.3
		C681.6,187.7,684.3,185.1,687.5,185.1z"/>
	<path class="st12" d="M718.8,232.8v5.9c1.1,0.5,2.2,0.9,3.4,1.1c1.4,0.2,2.7,0.4,4.1,0.4c1.3,0,2.7-0.1,4-0.4
		c1.2-0.2,2.3-0.7,3.3-1.3c1-0.6,1.7-1.4,2.2-2.5c0.5-1.2,0.8-2.5,0.8-3.8c0-1-0.1-1.9-0.5-2.8c-0.3-0.8-0.8-1.5-1.4-2.1
		c-0.6-0.6-1.3-1.2-2.1-1.6c-0.9-0.5-1.8-1-2.8-1.4c-0.8-0.3-1.4-0.6-2.1-0.9c-0.5-0.3-1-0.6-1.5-0.9c-0.4-0.3-0.7-0.6-1-1
		c-0.2-0.3-0.4-0.8-0.3-1.2c0-0.4,0.1-0.8,0.3-1.1c0.2-0.3,0.5-0.6,0.9-0.8c0.4-0.3,0.9-0.4,1.4-0.5c0.6-0.1,1.2-0.2,1.9-0.2
		c0.5,0,1,0,1.5,0.1c0.6,0.1,1.1,0.2,1.6,0.3c0.6,0.2,1.1,0.3,1.6,0.6c0.5,0.2,1,0.5,1.4,0.8v-5.5c-0.9-0.4-1.9-0.6-2.9-0.8
		c-1.2-0.2-2.4-0.3-3.6-0.2c-1.3,0-2.7,0.1-4,0.4c-1.2,0.2-2.3,0.7-3.3,1.4c-0.9,0.6-1.7,1.5-2.2,2.5c-0.6,1.1-0.9,2.3-0.8,3.5
		c-0.1,1.6,0.5,3.2,1.5,4.5c1.3,1.4,2.8,2.5,4.6,3.2c0.8,0.3,1.5,0.7,2.2,1c0.6,0.3,1.2,0.6,1.8,1c0.5,0.3,0.9,0.7,1.2,1.1
		c0.3,0.4,0.5,0.9,0.5,1.4c0,0.4-0.1,0.7-0.3,1c-0.2,0.3-0.5,0.6-0.8,0.9c-0.4,0.3-0.9,0.4-1.4,0.6c-0.7,0.1-1.3,0.2-2,0.2
		c-1.3,0-2.6-0.2-3.8-0.7c-1.3-0.4-2.5-1.1-3.5-2L718.8,232.8z M708.9,218.4h7.5v-4.8h-21v4.8h7.5v21.5h6V218.4z"/>
	<g id="vlpa">
		<g id="vlpb">
			<g id="vlpc">
				<g id="vlpd">
					<path class="st13" d="M10.6,398h38.8c5.9,0,10.6,4.8,10.6,10.6c0,0,0,0,0,0v37.2c0,5.9-4.7,10.6-10.6,10.6c0,0,0,0,0,0H10.6
						c-5.9,0-10.6-4.7-10.6-10.6c0,0,0,0,0,0v-37.2C0,402.7,4.7,398,10.6,398C10.6,398,10.6,398,10.6,398z"/>
				</g>
			</g>
		</g>
		<g id="vlpe">
			<g id="vlpf">
				<path class="st14" d="M29,433h-9.3l-1.9,5.9c0,0.2-0.2,0.4-0.5,0.3h-4.7c-0.3,0-0.4-0.1-0.3-0.5l8.1-23.2
					c0.1-0.2,0.2-0.5,0.2-0.8c0.1-0.5,0.2-1.1,0.2-1.6c0-0.1,0.1-0.2,0.2-0.3h6.5c0.2,0,0.3,0.1,0.3,0.2l9.1,25.8
					c0.1,0.3,0,0.4-0.2,0.4h-5.2c-0.2,0-0.3-0.1-0.4-0.3L29,433z M21.2,427.9h6.3c-0.2-0.5-0.3-1.2-0.6-1.8
					c-0.2-0.7-0.5-1.4-0.7-2.2s-0.5-1.5-0.7-2.3c-0.2-0.8-0.5-1.5-0.7-2.2c-0.2-0.7-0.4-1.4-0.5-2h0c-0.2,1.1-0.5,2.2-0.8,3.2
					c-0.4,1.2-0.8,2.5-1.2,3.7S21.5,426.8,21.2,427.9z"/>
				<path class="st14" d="M42.5,417.2c-0.8,0-1.6-0.3-2.2-0.9c-0.6-0.6-0.9-1.5-0.8-2.3c0-0.8,0.3-1.6,0.9-2.2
					c0.6-0.6,1.4-0.9,2.2-0.9c0.8,0,1.7,0.3,2.3,0.9c1.1,1.3,1.1,3.2,0,4.5C44.2,416.9,43.3,417.3,42.5,417.2z M39.7,438.9v-19.3
					c0-0.2,0.1-0.3,0.3-0.3h5c0.2,0,0.3,0.1,0.3,0.3v19.2c0,0.3-0.1,0.4-0.3,0.4h-4.9c-0.2,0-0.4-0.1-0.4-0.3
					C39.7,439,39.7,439,39.7,438.9L39.7,438.9z"/>
			</g>
		</g>
	</g>
	<g id="Layer_2">
		<g id="Surfaces">
			<g id="UI_UX_Surface">
				<g id="Outline_no_shadow">
					<path class="st15" d="M58.7,535h38.8c5.9,0,10.6,4.7,10.6,10.6c0,0,0,0,0,0v37.2c0,5.9-4.8,10.6-10.6,10.6c0,0,0,0,0,0H58.7
						c-5.9,0-10.6-4.7-10.6-10.6c0,0,0,0,0,0v-37.2C48.1,539.8,52.8,535,58.7,535C58.7,535,58.7,535,58.7,535z"/>
				</g>
			</g>
		</g>
		<g id="Outlined_Mnemonics_Logos">
			<g id="Xd">
				<path class="st16" d="M79.6,550.4l-7.5,12.4l8,13.1c0,0.1,0,0.2,0,0.3c0,0.1-0.1,0-0.3,0h-5.6c-0.4,0-0.7,0-0.8-0.3
					c-0.5-1-1.1-2.1-1.6-3.1c-0.5-1-1.1-2.1-1.7-3.2c-0.6-1.1-1.2-2.2-1.8-3.2h-0.1c-0.5,1.1-1.1,2.2-1.7,3.2s-1.2,2.2-1.7,3.2
					c-0.6,1-1.2,2.1-1.7,3.2c-0.1,0.2-0.3,0.3-0.6,0.3H57c-0.1,0-0.2,0-0.2-0.1c0-0.1,0-0.2,0-0.3l7.8-12.8l-7.6-12.8
					c-0.1-0.1-0.1-0.2,0-0.2c0.1-0.1,0.2-0.1,0.2-0.1H63c0.1,0,0.2,0,0.3,0c0.1,0.1,0.2,0.1,0.2,0.2c0.5,1.1,1,2.2,1.6,3.2
					c0.6,1.1,1.2,2.1,1.8,3.2c0.6,1,1.2,2.1,1.7,3.2l0,0c0.5-1.1,1.1-2.2,1.6-3.2s1.1-2.1,1.7-3.2c0.6-1.1,1.1-2.1,1.7-3.1
					c0-0.1,0.1-0.2,0.1-0.2c0.1-0.1,0.2-0.1,0.3,0h5.3c0.1,0,0.2,0,0.3,0.2c0,0,0,0,0,0C79.7,550.3,79.7,550.4,79.6,550.4
					L79.6,550.4z"/>
				<path class="st16" d="M91.2,576.8c-1.9,0-3.7-0.4-5.4-1.1c-1.6-0.7-2.9-1.9-3.8-3.4c-1-1.7-1.5-3.7-1.4-5.7
					c-0.1-3.8,2-7.3,5.3-9.2c1.9-1,4.1-1.5,6.3-1.5c0.1,0,0.3,0,0.5,0c0.2,0,0.5,0,0.8,0V548c0-0.2,0.1-0.3,0.2-0.3H99
					c0.1,0,0.2,0,0.2,0.2c0,0,0,0,0,0v23.8c0,0.5,0,1,0,1.5s0.1,1,0.1,1.5c0,0.2-0.1,0.3-0.2,0.4c-1.3,0.6-2.7,1-4.1,1.2
					C93.7,576.6,92.5,576.7,91.2,576.8z M93.6,571.8v-11c-0.2-0.1-0.5-0.1-0.7-0.1c-0.3,0-0.5,0-0.8,0c-1,0-2,0.2-2.8,0.7
					c-1.9,0.9-3.1,2.9-3,5c0,0.9,0.1,1.8,0.4,2.6c0.2,0.7,0.6,1.3,1.1,1.8c0.5,0.5,1.1,0.8,1.7,1c0.7,0.2,1.4,0.3,2.1,0.3
					c0.4,0,0.7,0,1.1,0C93,572,93.3,571.9,93.6,571.8L93.6,571.8z"/>
			</g>
		</g>
	</g>
	<g id="Layer_2-2">
		<g id="Surfaces-2">
			<g id="Photo_Surface">
				<g id="Outline_no_shadow-2">
					<path class="st17" d="M27.1,465.9h38.8c5.9,0,10.6,4.7,10.6,10.6c0,0,0,0,0,0v37.2c0,5.9-4.8,10.6-10.6,10.6H27.1
						c-5.9,0-10.6-4.7-10.6-10.6v-37.2C16.5,470.7,21.3,465.9,27.1,465.9C27.1,465.9,27.1,465.9,27.1,465.9z"/>
				</g>
			</g>
		</g>
		<g id="Outlined_Mnemonics_Logos-2">
			<g id="Ps">
				<path class="st18" d="M30,506.9v-25.7c0-0.2,0.1-0.3,0.2-0.3c0.4,0,0.8,0,1.4,0s1.2,0,1.9,0s1.4,0,2.2,0s1.5,0,2.3,0
					c1.7-0.1,3.5,0.2,5.2,0.8c1.3,0.4,2.4,1.1,3.3,2c0.8,0.8,1.4,1.8,1.8,2.8c0.4,1,0.6,2.1,0.6,3.2c0.1,1.9-0.4,3.8-1.5,5.3
					c-1,1.4-2.4,2.5-4,3c-1.8,0.6-3.7,0.9-5.6,0.8c-0.6,0-1,0-1.2,0c-0.4,0-0.7,0-1.1,0v8c0,0.2-0.1,0.3-0.3,0.3h-4.9
					C30.1,507.3,30,507.2,30,506.9z M35.5,485.8v8.4c0.3,0,0.7,0,1,0h1.3c1,0,1.9-0.2,2.9-0.5c0.8-0.2,1.5-0.7,2-1.3
					c0.6-0.7,0.8-1.6,0.8-2.6c0-0.8-0.2-1.6-0.6-2.2c-0.4-0.6-1-1.1-1.8-1.4c-1-0.4-2-0.5-3-0.5c-0.7,0-1.2,0-1.7,0
					C36.1,485.7,35.7,485.7,35.5,485.8L35.5,485.8z"/>
				<path class="st18" d="M64.5,492.6c-0.8-0.4-1.6-0.7-2.4-0.8c-0.9-0.2-1.9-0.3-2.8-0.3c-0.5,0-1,0-1.5,0.2c-0.6,0.1-1,0.6-1,1.2
					c0,0.2,0.1,0.5,0.2,0.7c0.2,0.3,0.5,0.5,0.8,0.7c0.6,0.3,1.2,0.6,1.8,0.8c1.4,0.5,2.6,1.1,3.8,1.8c0.8,0.5,1.5,1.2,2,2.1
					c0.4,0.8,0.6,1.7,0.6,2.5c0,1.2-0.3,2.3-1,3.3c-0.7,1-1.7,1.8-2.8,2.2c-1.4,0.6-3,0.8-4.5,0.8c-1.1,0-2.3-0.1-3.4-0.3
					c-0.9-0.2-1.7-0.4-2.6-0.8c-0.2-0.1-0.3-0.3-0.3-0.5v-4.3c0-0.1,0-0.2,0.1-0.2c0.1-0.1,0.2-0.1,0.2,0c1,0.6,2,1,3.1,1.2
					c1,0.3,2,0.4,3,0.4c0.7,0,1.4-0.1,2.1-0.3c0.4-0.2,0.7-0.6,0.7-1c0-0.4-0.3-0.8-0.6-1c-0.8-0.5-1.6-0.9-2.4-1.2
					c-1.3-0.4-2.4-1-3.6-1.8c-0.8-0.6-1.4-1.3-1.9-2.1c-0.4-0.8-0.6-1.7-0.6-2.5c0-1.1,0.3-2.1,0.8-3c0.6-1,1.5-1.8,2.6-2.3
					c1.4-0.6,2.9-0.9,4.4-0.9c1,0,2.1,0.1,3.1,0.2c0.7,0.1,1.5,0.3,2.2,0.6c0.1,0,0.2,0.1,0.2,0.2c0,0.1,0,0.2,0,0.3v4.1
					c0,0.1,0,0.2-0.1,0.2C64.8,492.7,64.6,492.7,64.5,492.6z"/>
			</g>
		</g>
	</g>
	<path id="path0_fill" class="st19" d="M230.5,726.5c5.5,0,10-4.5,10-10l0,0v-10h-10c-5.5,0-10,4.5-10,10S224.9,726.5,230.5,726.5
		L230.5,726.5z"/>
	<path id="path1_fill" class="st20" d="M220.5,696.5c0-5.5,4.5-10,10-10h10v20h-10C224.9,706.5,220.5,702,220.5,696.5L220.5,696.5z"
		/>
	<path id="path1_fill-2" class="st21" d="M220.5,676.5c0-5.5,4.5-10,10-10h10v20h-10C224.9,686.5,220.5,682,220.5,676.5L220.5,676.5
		z"/>
	<path id="path2_fill" class="st22" d="M240.5,666.5h10c5.5,0,10,4.5,10,10s-4.5,10-10,10h-10V666.5z"/>
	<path id="path3_fill" class="st23" d="M260.5,696.5c0,5.5-4.5,10-10,10s-10-4.5-10-10s4.5-10,10-10S260.5,690.9,260.5,696.5z"/>
	<g>
		<text transform="matrix(1 0 0 1 532.5057 677.9126)" class="st24 st25 st26">ENG</text>
		<path class="st24" d="M523.9,679.6c-1.5,0-2.8,1.3-2.8,2.8c0,1.5,1.3,2.8,2.8,2.8c1.5,0,2.8-1.3,2.8-2.8
			C526.7,680.8,525.5,679.6,523.9,679.6z"/>
		<path class="st24" d="M522,685.5h-26.2c-1,0-1.7,0.8-1.7,1.7c0,8.2,6.7,14.9,14.9,14.9c8.2,0,14.9-6.7,14.9-14.9
			C523.7,686.3,523,685.5,522,685.5z M508.9,698.7c-5.7,0-10.4-4.2-11.2-9.6h22.5C519.3,694.5,514.6,698.7,508.9,698.7z"/>
		<path class="st27" d="M530.7,688.1"/>
		<path class="st28" d="M530.4,692.7l-0.5,1.8l-0.7,1.9c-3.6,7.7-11.3,12.8-20,12.8c-12.1,0-22-9.9-22-22c0-12.1,9.9-22,22-22
			c6.6,0,12.7,2.9,16.9,8l0.4,0.6"/>
		<path class="st24" d="M496.6,682.3c0-1.5-1.2-2.8-2.8-2.8c-1.5,0-2.8,1.3-2.8,2.8c0,1.5,1.3,2.8,2.8,2.8
			C495.3,685.1,496.6,683.9,496.6,682.3z"/>
		<path class="st29" d="M545.2,692.2c-2.7,0-5.3-0.6-7.7-1.7c-0.5-0.2-1.2-0.2-1.6,0.1c-1.9,1.2-4.4,2-6.6,2c-0.3,0-0.2-0.2-0.5-0.2
			c1.2-1.4,2.2-3.1,2.8-4.9c0.2-0.6,0.1-1.2-0.3-1.7c-2.9-3.3-4.5-7.6-4.5-12c0-10.2,8.3-18.4,18.4-18.4c10.2,0,18.4,8.3,18.4,18.4
			C563.6,683.9,555.3,692.2,545.2,692.2z"/>
	</g>
</g>
<g id="Warstwa_2">
	<circle class="st30" cx="383.7" cy="366.5" r="300"/>
	<circle class="st30" cx="383.6" cy="366.9" r="250"/>
	<circle class="st30" cx="383.7" cy="366.5" r="200"/>
	<circle class="st30" cx="383.7" cy="366.5" r="150"/>
	<circle class="st30" cx="383.7" cy="366.5" r="100"/>
	<circle class="st30" cx="383.7" cy="366.5" r="50"/>
	<line class="st31" x1="83.7" y1="366.9" x2="683.5" y2="366.9"/>
	<line class="st31" x1="383.6" y1="66.5" x2="383.6" y2="666.5"/>
	<polyline class="st32" points="595.8,154.3 383.7,366.4 171.6,578.5 	"/>
	<polyline class="st32" points="171.6,154.5 383.5,366.8 595.3,579.1 	"/>
	<polygon class="st33" points="422.3,274.2 478,333.1 429.2,387.1 444,503.8 368.4,414.1 291.3,404.9 246.2,306.4 324.2,226.7 	"/>
</g>
</svg>
