<svg id="Warstwa_1" data-name="Warstwa 1" xmlns="http://www.w3.org/2000/svg" viewBox="0 0 741.63 726.38"><defs><style>.cls-1{fill:#dd0031;}.cls-2{fill:#c3002f;}.cls-13,.cls-3{fill:#fff;}.cls-4{fill:#cf649a;}.cls-5{fill:#264de4;}.cls-6{fill:#2965f1;}.cls-7{fill:#ebebeb;}.cls-8{fill:#e44d26;}.cls-9{fill:#f16529;}.cls-10{fill:#f7df1e;}.cls-11,.cls-27{stroke:#000;}.cls-11,.cls-27,.cls-28{stroke-miterlimit:10;}.cls-12{fill:#3178c6;}.cls-13{fill-rule:evenodd;}.cls-14{fill:#300;}.cls-15{fill:#ff9a00;}.cls-16{fill:#470137;}.cls-17{fill:#ff61f6;}.cls-18{fill:#001e36;}.cls-19{fill:#31a8ff;}.cls-20{fill:#0acf83;}.cls-21{fill:#a259ff;}.cls-22{fill:#f24e1e;}.cls-23{fill:#ff7262;}.cls-24{fill:#1abcfe;}.cls-25{font-size:12.08px;font-family:Arial-BoldMT, Arial;font-weight:700;}.cls-25,.cls-26{fill:#55ff63;}.cls-27,.cls-28,.cls-29{fill:none;}.cls-28{stroke:#55ff63;}.cls-28,.cls-29{stroke-width:3px;}.cls-29{stroke:#3bc9db;stroke-linecap:round;stroke-linejoin:round;}</style></defs><polygon class="cls-1" points="711.63 475.76 711.63 475.76 711.63 475.76 683.7 485.73 687.96 522.66 711.63 535.77 711.63 535.77 711.63 535.77 735.3 522.66 739.56 485.73 711.63 475.76"/><polygon class="cls-2" points="711.63 475.76 711.63 482.43 711.63 482.39 711.63 512.79 711.63 512.79 711.63 535.77 711.63 535.77 735.3 522.66 739.56 485.73 711.63 475.76"/><path class="cls-3" d="M711.64,482.47,694.2,521.62h6.51l3.51-8.76H719l3.51,8.76h6.51l-17.4-39.15Zm5.07,25h-10.2l5.1-12.27Z" transform="translate(0 -0.07)"/><path class="cls-4" d="M313.09,34.29A16.53,16.53,0,0,0,305.85,36a14.55,14.55,0,0,1-1.65-3.74,10.42,10.42,0,0,1-.15-3.15A26.44,26.44,0,0,1,305,25.7c0-.14-.17-.82-1.78-.83s-3,.32-3.15.74a16.63,16.63,0,0,0-.67,2.39c-.27,1.47-3.19,6.68-4.85,9.42a9.71,9.71,0,0,1-1.12-2.75,10.42,10.42,0,0,1-.15-3.15,26.44,26.44,0,0,1,.94-3.41c0-.14-.17-.82-1.78-.83s-3,.32-3.15.74-.32,1.42-.66,2.39-4.2,9.66-5.21,11.93c-.51,1.16-1,2.08-1.29,2.71s0,0,0,.1c-.28.54-.44.83-.44.83h0c-.21.39-.45.77-.56.77a5.51,5.51,0,0,1,0-2.49c.56-3,1.95-7.71,1.94-7.89s.26-.9-.91-1.32a1.42,1.42,0,0,0-1.64.29c-.09,0-.17.25-.17.25s1.25-5.3-2.44-5.29c-2.31,0-5.49,2.53-7,4.84-1,.54-3.12,1.71-5.36,3l-2.59,1.43-.17-.19c-4.48-4.75-12.75-8.09-12.43-14.49.12-2.33.91-8.46,15.8-15.95,12.21-6.13,22-4.49,23.71-.78,2.44,5.3-5.17,15.19-17.88,16.66-4.83.56-7.38-1.31-8-2s-.76-.76-1-.62c-.41.22-.16.88,0,1.27a7.57,7.57,0,0,0,4.6,3.59c2.33.75,8,1.16,14.87-1.52,7.69-3,13.67-11.3,11.89-18.21S280.78-2,269.76,2C263.19,4.34,256.09,8,251,12.83c-6.06,5.7-7,10.67-6.6,12.73C245.82,32.91,256,37.67,260,41.2l-.56.31c-2,1-9.74,5.07-11.66,9.36-2.17,4.85.37,8.32,2.06,8.78,5.22,1.43,10.55-1.19,13.42-5.49s2.5-9.88,1.16-12.42l0-.09,1.59-.94c1-.62,2-1.18,2.93-1.67a19.63,19.63,0,0,0-1,5.31c-.21,2.75.93,6.31,2.42,7.71a2.62,2.62,0,0,0,1.92.61c1.72,0,2.49-1.42,3.35-3.13,1-2.08,2-4.49,2-4.49s-1.15,6.52,2.05,6.51c1.17,0,2.34-1.53,2.87-2.31h0l.09-.16.18-.3h0c.47-.81,1.51-2.67,3.06-5.75,2-4,3.92-8.94,3.92-8.94a29.43,29.43,0,0,0,.78,3.21A28.91,28.91,0,0,0,292.2,41c-.47.66-.75,1-.75,1h0c-.37.5-.79,1-1.23,1.56a45.63,45.63,0,0,0-3.73,4.71,1.29,1.29,0,0,0,.35,1.72,3.15,3.15,0,0,0,2,.31,8.71,8.71,0,0,0,2.93-.69,9.74,9.74,0,0,0,2.43-1.28,5.63,5.63,0,0,0,2.41-5,9.94,9.94,0,0,0-.94-3.51c.14-.2.28-.4.42-.62a65.57,65.57,0,0,0,4.35-7.59,27.25,27.25,0,0,0,.77,3.21A21,21,0,0,0,302.65,38a13.92,13.92,0,0,0-4.25,5.53c-.91,2.66-.19,3.86,1.17,4.13a4.27,4.27,0,0,0,2.14-.44,10,10,0,0,0,2.7-1.4c1.55-1.16,3-2.77,3-4.94a9.49,9.49,0,0,0-.68-2.92,15.15,15.15,0,0,1,7.74-.92c7,.79,8.34,5.13,8.08,6.94a4.69,4.69,0,0,1-2.19,3.13c-.49.3-.64.41-.59.62s.28.32.7.25a5.39,5.39,0,0,0,3.73-4.82c.17-4.3-3.92-9-11.14-8.9ZM259.57,52.54c-2.28,2.52-5.51,3.48-6.89,2.67s-.92-4.55,1.9-7.23a36.13,36.13,0,0,1,5.4-4.06l1.42-.87.15-.09.36-.22a10,10,0,0,1-2.34,9.8Zm16.74-11.47c-.79,2-2.45,7-3.47,6.69s-1.42-4-.2-7.77a17,17,0,0,1,2.72-5c1.26-1.41,2.63-1.88,3-1.31S276.81,39.85,276.31,41.07Zm13.89,6.57c-.34.17-.65.3-.79.21s.14-.3.14-.3,1.72-1.86,2.41-2.73l1.35-1.73v.18C293.3,45.52,291.2,47,290.2,47.64Zm10.67-2.47c-.25-.19-.22-.77.62-2.58a9.57,9.57,0,0,1,2.36-3.07,3.88,3.88,0,0,1,.24,1.35,4.38,4.38,0,0,1-3.24,4.3Z" transform="translate(0 -0.07)"/><g id="layer1"><g id="g3013"><polygon id="polygon2989" class="cls-5" points="220.02 43.99 216.01 87.34 198.6 92.11 181.27 87.24 177.53 43.86 220.02 43.99"/><polygon id="polygon2991" class="cls-6" points="212.71 84.57 216.13 47.53 198.76 47.48 198.64 88.42 212.71 84.57"/><polygon id="polygon2993" class="cls-7" points="186.34 63.52 186.8 68.84 198.7 68.88 198.71 63.56 186.34 63.52"/><polygon id="polygon2995" class="cls-7" points="198.75 52.79 198.73 52.79 185.41 52.75 185.88 58.07 198.73 58.11 198.75 52.79"/><polygon id="polygon2997" class="cls-7" points="198.66 82.9 198.67 77.37 198.65 77.38 192.73 75.76 192.37 71.52 189.49 71.51 187.03 71.5 187.75 79.85 198.63 82.91 198.66 82.9"/><path id="path2999" d="M187.57,32.18H194v2.7h-3.74v2.69H194v2.7h-6.44Z" transform="translate(0 -0.07)"/><path id="path3001" d="M195.3,32.21h6.44v2.34H198V35h3.74v5.37H195.3V38h3.75v-.46H195.3Z" transform="translate(0 -0.07)"/><path id="path3003" d="M203,32.23h6.44v2.36h-3.74v.47h3.74v5.39H203V38h3.75V37.5H203Z" transform="translate(0 -0.07)"/><polygon id="polygon3005" class="cls-3" points="205.23 68.9 204.59 75.79 198.65 77.37 198.64 82.91 209.55 79.92 209.63 79.02 210.93 65.02 211.06 63.6 212.05 52.83 198.73 52.79 198.71 58.11 206.21 58.13 205.71 63.58 198.7 63.56 198.68 68.88 205.23 68.9"/></g></g><path d="M47.5,184.05h2.68v2.66h2.47v-2.66l2.68-.05.13,8.06H52.78v-2.68H50.33v2.68H47.62m11.31-5.55H56.56l-.05-2.69,7.44-.11v2.68H61.56l.09,5.37H59m6.12-8.15H67.9l1.77,2.81,1.68-2.86,2.82-.05.12,8.06H71.61l-.06-4-1.84,2.92-1.92-2.86.06,4H65.21m10.29-8.22h2.68l.09,5.39,3.81-.06v2.66l-6.49.11" transform="translate(0 -0.07)"/><path class="cls-8" d="M48.28,239.05l-4.54-43.19,42.36-.68-3.16,43.29-17.29,5.09" transform="translate(0 -0.07)"/><path class="cls-9" d="M65.63,239.88,65,199.07l17.31-.28-2.71,37" transform="translate(0 -0.07)"/><path class="cls-7" d="M51.75,204.57l13.31-.18.09,5.3-7.5.12.58,5.42,7-.11.09,5.29-11.87.19m.28,2.66,5.32-.09.44,4.23,6,1.5.09,5.53-10.93-2.86" transform="translate(0 -0.07)"/><path class="cls-3" d="M78.33,204.15,65,204.39l.08,5.3,12.8-.2m-.39,5.43-12.33.17.08,5.3,6.54-.1-.51,6.9-5.89,1.68.09,5.51,10.81-3.19" transform="translate(0 -0.07)"/><rect class="cls-10" x="495.52" y="2.36" width="59.72" height="59.72" transform="translate(-0.14 2.31) rotate(-0.26)"/><path class="cls-11" d="M535.73,48.93c1.21,2,2.78,3.4,5.55,3.39,2.33,0,3.81-1.18,3.8-2.79,0-1.92-1.54-2.6-4.1-3.71l-1.41-.59c-4.06-1.71-6.76-3.86-6.78-8.43,0-4.21,3.17-7.42,8.19-7.45,3.56,0,6.13,1.22,8,4.46l-4.36,2.83c-1-1.73-2-2.4-3.62-2.39a2.44,2.44,0,0,0-2.67,2.19,1.62,1.62,0,0,0,0,.22c0,1.69,1.06,2.37,3.47,3.4l1.41.59c4.77,2,7.48,4.1,7.5,8.78,0,5.06-3.94,7.84-9.27,7.87s-8.59-2.45-10.25-5.69Zm-19.82.58c.88,1.56,1.69,2.88,3.62,2.87s3-.73,3-3.54l-.09-19.08h5.62l.08,19.16c0,5.81-3.36,8.47-8.34,8.5a8.73,8.73,0,0,1-8.44-5.09Z" transform="translate(0 -0.07)"/><rect class="cls-12" x="681.63" y="185.01" width="60" height="60" rx="5.86"/><path class="cls-13" d="M718.79,232.78v5.86a12.24,12.24,0,0,0,3.39,1.1,23.6,23.6,0,0,0,4.11.36,19.25,19.25,0,0,0,4-.4,10,10,0,0,0,3.28-1.29A5.77,5.77,0,0,0,735.8,236a8.81,8.81,0,0,0,.83-3.75,7.69,7.69,0,0,0-.48-2.81,5.49,5.49,0,0,0-1.41-2.11,9.34,9.34,0,0,0-2.11-1.64,25.43,25.43,0,0,0-2.81-1.41c-.77-.31-1.41-.62-2.11-.92a9,9,0,0,1-1.51-.92,4,4,0,0,1-1-1,2.11,2.11,0,0,1-.35-1.17,1.91,1.91,0,0,1,.32-1.09,2.59,2.59,0,0,1,.88-.83,4.42,4.42,0,0,1,1.4-.54,8,8,0,0,1,1.88-.19,11,11,0,0,1,1.52.11,13.26,13.26,0,0,1,1.64.34,11.78,11.78,0,0,1,1.64.57,7.58,7.58,0,0,1,1.41.81v-5.51a14.85,14.85,0,0,0-2.93-.76,24.51,24.51,0,0,0-3.63-.24,17.9,17.9,0,0,0-4,.44,9.13,9.13,0,0,0-3.28,1.41,6.76,6.76,0,0,0-2.23,2.46,7,7,0,0,0-.82,3.51,6.65,6.65,0,0,0,1.55,4.48,12.09,12.09,0,0,0,4.57,3.16c.81.33,1.52.66,2.22,1a9.86,9.86,0,0,1,1.76,1,4.26,4.26,0,0,1,1.17,1.11,2.3,2.3,0,0,1,.45,1.41,2.13,2.13,0,0,1-.27,1,2.41,2.41,0,0,1-.83.85,4.78,4.78,0,0,1-1.41.56,8.44,8.44,0,0,1-2,.2,10.45,10.45,0,0,1-3.75-.67,10.89,10.89,0,0,1-3.52-2Zm-9.85-14.39h7.5v-4.8h-21v4.8h7.5v21.45h6Z" transform="translate(0 -0.07)"/><g id="vlpa"><g id="vlpb"><g id="vlpc"><g id="vlpd"><path class="cls-14" d="M10.63,398H49.38A10.61,10.61,0,0,1,60,408.58h0v37.25a10.61,10.61,0,0,1-10.6,10.62H10.63A10.61,10.61,0,0,1,0,445.85H0V408.59A10.61,10.61,0,0,1,10.61,398Z" transform="translate(0 -0.07)"/></g></g></g><g id="vlpe"><g id="vlpf"><path class="cls-15" d="M29,433H19.7l-1.9,5.88a.44.44,0,0,1-.47.35h-4.7c-.28,0-.35-.15-.28-.45l8-23.18c.08-.25.15-.52.25-.82a8.91,8.91,0,0,0,.15-1.63.25.25,0,0,1,.2-.27h6.48c.2,0,.3.07.32.2l9.13,25.75c.07.27,0,.4-.25.4H31.45a.39.39,0,0,1-.4-.28Zm-7.8-5.07h6.3c-.15-.53-.35-1.15-.57-1.8s-.45-1.4-.68-2.15-.47-1.53-.72-2.3-.48-1.5-.68-2.23-.37-1.35-.55-2h-.05a30.09,30.09,0,0,1-.85,3.23c-.37,1.2-.75,2.45-1.15,3.7S21.53,426.84,21.2,427.89Z" transform="translate(0 -0.07)"/><path class="cls-15" d="M42.5,417.21a3.05,3.05,0,0,1-2.22-.87,3.2,3.2,0,0,1-.85-2.3,3,3,0,0,1,.9-2.23,3.26,3.26,0,0,1,2.22-.87,3,3,0,0,1,2.28.87,3.46,3.46,0,0,1,0,4.53A3,3,0,0,1,42.5,417.21Zm-2.8,21.7V419.66c0-.25.1-.35.33-.35h5c.22,0,.32.13.32.35v19.25c0,.28-.1.4-.32.4h-4.9a.34.34,0,0,1-.42-.25.26.26,0,0,1,0-.15Z" transform="translate(0 -0.07)"/></g></g></g><g id="Layer_2" data-name="Layer 2"><g id="Surfaces"><g id="UI_UX_Surface" data-name="UI UX Surface"><g id="Outline_no_shadow" data-name="Outline no shadow"><path class="cls-16" d="M58.68,535H97.43a10.61,10.61,0,0,1,10.63,10.61V582.9a10.61,10.61,0,0,1-10.62,10.62H58.68a10.61,10.61,0,0,1-10.62-10.6V545.65A10.61,10.61,0,0,1,58.67,535Z" transform="translate(0 -0.07)"/></g></g></g><g id="Outlined_Mnemonics_Logos" data-name="Outlined Mnemonics Logos"><g id="Xd"><path class="cls-17" d="M79.61,550.39l-7.5,12.37,8,13.13a.51.51,0,0,1,0,.3c0,.1-.13,0-.28,0H74.2c-.4,0-.68,0-.85-.28-.53-1.05-1.08-2.07-1.6-3.12s-1.1-2.08-1.7-3.15-1.2-2.15-1.8-3.25h0c-.53,1.07-1.1,2.15-1.68,3.22s-1.15,2.15-1.7,3.2S63.67,575,63.1,576c-.1.25-.3.28-.58.28H57c-.1,0-.17.05-.17-.08a.32.32,0,0,1,0-.27l7.77-12.75-7.56-12.8c-.08-.1-.1-.2,0-.25a.3.3,0,0,1,.25-.1h6a.61.61,0,0,1,.25.23c.48,1.07,1,2.15,1.6,3.22s1.18,2.13,1.8,3.18,1.15,2.1,1.68,3.17h0c.52-1.1,1.07-2.17,1.62-3.22s1.13-2.1,1.7-3.15l1.68-3.08a.37.37,0,0,1,.15-.25.45.45,0,0,1,.32,0h5.28a.22.22,0,0,1,.27.16h0s0,.13-.07.18Z" transform="translate(0 -0.07)"/><path class="cls-17" d="M91.2,576.77a12.49,12.49,0,0,1-5.38-1.12,8.79,8.79,0,0,1-3.77-3.4,10.82,10.82,0,0,1-1.38-5.7A10.26,10.26,0,0,1,86,557.4,12.78,12.78,0,0,1,92.35,556h1.3v-7.9c0-.17.07-.27.25-.27H99a.22.22,0,0,1,.25.16h0V573.3c0,.55.08,1,.1,1.45a.39.39,0,0,1-.25.4,19.22,19.22,0,0,1-4.07,1.2A22,22,0,0,1,91.2,576.77Zm2.45-5v-11c-.22,0-.45-.09-.68-.12h-.82a6.18,6.18,0,0,0-2.83.65,5.19,5.19,0,0,0-3,5,7.1,7.1,0,0,0,.43,2.58,4.85,4.85,0,0,0,1.12,1.77,4.31,4.31,0,0,0,1.7,1,6.66,6.66,0,0,0,2.08.33h1a2.42,2.42,0,0,0,.91-.21Z" transform="translate(0 -0.07)"/></g></g></g><g id="Layer_2-2" data-name="Layer 2-2"><g id="Surfaces-2"><g id="Photo_Surface" data-name="Photo Surface"><g id="Outline_no_shadow-2" data-name="Outline no shadow-2"><path class="cls-18" d="M27.13,465.91H65.88a10.61,10.61,0,0,1,10.62,10.6v37.27a10.62,10.62,0,0,1-10.62,10.61H27.13A10.61,10.61,0,0,1,16.5,513.78V476.53a10.61,10.61,0,0,1,10.62-10.62Z" transform="translate(0 -0.07)"/></g></g></g><g id="Outlined_Mnemonics_Logos-2" data-name="Outlined Mnemonics Logos-2"><g id="Ps"><path class="cls-19" d="M30,506.93V481.21c0-.18.08-.28.25-.28h3.3c.67,0,1.4,0,2.18-.05s1.52,0,2.27,0a14.55,14.55,0,0,1,5.15.78,8.73,8.73,0,0,1,3.35,2,8,8,0,0,1,1.83,2.85,9.71,9.71,0,0,1,.57,3.25,8.89,8.89,0,0,1-1.5,5.32,8.57,8.57,0,0,1-4,3.05,16.08,16.08,0,0,1-5.63.85H36.52a9.55,9.55,0,0,0-1.07,0v8a.32.32,0,0,1-.28.35H30.3C30.1,507.26,30,507.16,30,506.93Zm5.45-21.17v8.4c.35,0,.68,0,1,0h1.32a9.37,9.37,0,0,0,2.88-.45,4.31,4.31,0,0,0,2-1.33,3.89,3.89,0,0,0,.77-2.57,4.06,4.06,0,0,0-.57-2.23,3.64,3.64,0,0,0-1.75-1.42,7.16,7.16,0,0,0-3-.5H36.4a5.57,5.57,0,0,0-1,0Z" transform="translate(0 -0.07)"/><path class="cls-19" d="M64.5,492.63a8.92,8.92,0,0,0-2.4-.85,13.21,13.21,0,0,0-2.8-.32,5,5,0,0,0-1.5.17,1.18,1.18,0,0,0-1,1.18,1.09,1.09,0,0,0,.25.65,2.63,2.63,0,0,0,.85.67c.57.3,1.17.58,1.77.83a17.84,17.84,0,0,1,3.85,1.82,5.86,5.86,0,0,1,2,2.08,5.28,5.28,0,0,1,.58,2.53,5.72,5.72,0,0,1-1,3.33,6.23,6.23,0,0,1-2.8,2.22,11.5,11.5,0,0,1-4.53.8,17.64,17.64,0,0,1-3.4-.32,10.36,10.36,0,0,1-2.55-.8.49.49,0,0,1-.27-.48v-4.35a.23.23,0,0,1,.1-.22.18.18,0,0,1,.22,0A10.52,10.52,0,0,0,55,502.8a11.69,11.69,0,0,0,3,.37,4.78,4.78,0,0,0,2.08-.35,1.17,1.17,0,0,0,.67-1,1.34,1.34,0,0,0-.6-1,10.61,10.61,0,0,0-2.45-1.17,15.2,15.2,0,0,1-3.55-1.8,6.58,6.58,0,0,1-1.9-2.13,5.26,5.26,0,0,1-.57-2.55,5.86,5.86,0,0,1,.85-3,6.15,6.15,0,0,1,2.62-2.3,9.66,9.66,0,0,1,4.43-.88,21.45,21.45,0,0,1,3.1.23,8.86,8.86,0,0,1,2.15.57.43.43,0,0,1,.25.23,1.5,1.5,0,0,1,0,.3v4.07a.31.31,0,0,1-.13.25A.67.67,0,0,1,64.5,492.63Z" transform="translate(0 -0.07)"/></g></g></g><path id="path0_fill" data-name="path0 fill" class="cls-20" d="M230.47,726.45a10,10,0,0,0,10-10h0v-10h-10a10,10,0,0,0,0,20Z" transform="translate(0 -0.07)"/><path id="path1_fill" data-name="path1 fill" class="cls-21" d="M220.47,696.45a10,10,0,0,1,10-10h10v20h-10a10,10,0,0,1-10-10Z" transform="translate(0 -0.07)"/><path id="path1_fill-2" data-name="path1 fill-2" class="cls-22" d="M220.47,676.45a10,10,0,0,1,10-10h10v20h-10a10,10,0,0,1-10-10Z" transform="translate(0 -0.07)"/><path id="path2_fill" data-name="path2 fill" class="cls-23" d="M240.47,666.45h10a10,10,0,1,1,0,20h-10Z" transform="translate(0 -0.07)"/><path id="path3_fill" data-name="path3 fill" class="cls-24" d="M260.47,696.45a10,10,0,1,1-10-10A10,10,0,0,1,260.47,696.45Z" transform="translate(0 -0.07)"/><text class="cls-25" transform="translate(532.51 677.84)">ENG</text><path class="cls-26" d="M524,679.55a2.8,2.8,0,1,0,2.79,2.79A2.79,2.79,0,0,0,524,679.55Z" transform="translate(0 -0.07)"/><path class="cls-26" d="M522,685.54H495.75a1.74,1.74,0,0,0-1.75,1.74,14.87,14.87,0,0,0,29.74,0A1.74,1.74,0,0,0,522,685.54Zm-13.12,13.12A11.41,11.41,0,0,1,497.62,689h22.5A11.41,11.41,0,0,1,508.87,698.66Z" transform="translate(0 -0.07)"/><path class="cls-27" d="M530.69,688.09" transform="translate(0 -0.07)"/><path class="cls-28" d="M530.36,692.7l-.52,1.82-.67,1.92a22,22,0,1,1-3.06-23.25l.42.57" transform="translate(0 -0.07)"/><path class="cls-26" d="M496.59,682.34a2.8,2.8,0,1,0-2.8,2.8A2.79,2.79,0,0,0,496.59,682.34Z" transform="translate(0 -0.07)"/><path class="cls-29" d="M545.16,692.17a18.22,18.22,0,0,1-7.69-1.69,1.76,1.76,0,0,0-1.65.11,13.32,13.32,0,0,1-6.64,2c-.26,0-.2-.18-.46-.2a15.41,15.41,0,0,0,2.79-4.91,1.74,1.74,0,0,0-.32-1.71,18.42,18.42,0,1,1,14,6.43Z" transform="translate(0 -0.07)"/></svg>