<?xml version="1.0" encoding="utf-8"?>
<!-- Generator: Adobe Illustrator 25.0.0, SVG Export Plug-In . SVG Version: 6.00 Build 0)  -->
<svg version="1.1" id="Warstwa_1" xmlns="http://www.w3.org/2000/svg" xmlns:xlink="http://www.w3.org/1999/xlink" x="0px" y="0px"
	 viewBox="0 0 803 803" style="enable-background:new 0 0 803 803;" xml:space="preserve">
<style type="text/css">
	.st0{fill:none;stroke:#3BC9DB;stroke-width:10;stroke-miterlimit:10;}
	.st1{fill:none;stroke:#3BC9DB;stroke-miterlimit:10;}
	.st2{fill:#FFFFFF;stroke:#3BC9DB;stroke-miterlimit:10;}
	.st3{fill:none;stroke:#55FF63;stroke-width:5;stroke-miterlimit:10;}
	.st4{fill:#DD0031;}
	.st5{fill:#C3002F;}
	.st6{fill:#FFFFFF;}
	.st7{fill:#CF649A;}
	.st8{fill:#264DE4;}
	.st9{fill:#2965F1;}
	.st10{fill:#EBEBEB;}
	.st11{fill:#E44D26;}
	.st12{fill:#F16529;}
	.st13{fill:#F7DF1E;}
	.st14{stroke:#000000;stroke-miterlimit:10;}
	.st15{fill:#3178C6;}
	.st16{fill-rule:evenodd;clip-rule:evenodd;fill:#FFFFFF;}
	.st17{fill:#330000;}
	.st18{fill:#FF9A00;}
	.st19{fill:#470137;}
	.st20{fill:#FF61F6;}
	.st21{fill:#001E36;}
	.st22{fill:#31A8FF;}
	.st23{fill:#0ACF83;}
	.st24{fill:#A259FF;}
	.st25{fill:#F24E1E;}
	.st26{fill:#FF7262;}
	.st27{fill:#1ABCFE;}
	.st28{display:none;fill:none;stroke:#000000;stroke-width:3;stroke-miterlimit:10;}
</style>
<circle class="st0" cx="401.5" cy="401.1" r="300"/>
<circle class="st0" cx="401.4" cy="401.5" r="250"/>
<circle class="st0" cx="401.5" cy="401.1" r="200"/>
<circle class="st0" cx="401.5" cy="401.1" r="150"/>
<circle class="st0" cx="401.5" cy="401.1" r="100"/>
<circle class="st0" cx="401.5" cy="401.1" r="50"/>
<line class="st1" x1="101.5" y1="401.5" x2="701.3" y2="401.5"/>
<line class="st1" x1="401.4" y1="101.1" x2="401.4" y2="701.1"/>
<polyline class="st2" points="613.6,188.9 401.5,401 189.4,613.2 "/>
<polyline class="st2" points="189.4,189.1 401.3,401.4 613.1,613.7 "/>
<polygon class="st3" points="368,306.8 439.6,308.6 494.8,364.9 493,441.4 421.7,446.8 346,540.4 309.4,440.2 262.4,344.9 "/>
<g>
	<polygon class="st4" points="729.4,510.4 729.4,510.4 729.4,510.4 701.5,520.4 705.8,557.3 729.4,570.4 729.4,570.4 729.4,570.4 
		753.1,557.3 757.4,520.4 	"/>
	<polygon class="st5" points="729.4,510.4 729.4,517.1 729.4,517.1 729.4,547.5 729.4,547.5 729.4,570.4 729.4,570.4 753.1,557.3 
		757.4,520.4 	"/>
	<path class="st6" d="M729.4,517.1L712,556.2h6.5l3.5-8.8h14.8l3.5,8.8h6.5L729.4,517.1L729.4,517.1z M734.5,542h-10.2l5.1-12.3
		L734.5,542z"/>
</g>
<path class="st7" d="M330.9,68.9c-2.8,0-5.2,0.7-7.2,1.7c-0.8-1.5-1.5-2.8-1.6-3.7c-0.1-1.1-0.3-1.8-0.2-3.2
	c0.2-1.3,0.9-3.3,0.9-3.4c0-0.1-0.2-0.8-1.8-0.8c-1.6,0-3,0.3-3.2,0.7c-0.2,0.4-0.5,1.4-0.7,2.4c-0.3,1.5-3.2,6.7-4.9,9.4
	c-0.5-1.1-1-2-1.1-2.7c-0.1-1.1-0.3-1.8-0.2-3.2c0.2-1.3,0.9-3.3,0.9-3.4c0-0.1-0.2-0.8-1.8-0.8s-3,0.3-3.2,0.7
	c-0.2,0.4-0.3,1.4-0.7,2.4c-0.3,1-4.2,9.7-5.2,11.9c-0.5,1.2-1,2.1-1.3,2.7c-0.3,0.6,0,0,0,0.1c-0.3,0.5-0.4,0.8-0.4,0.8l0,0
	c-0.2,0.4-0.5,0.8-0.6,0.8c-0.1,0-0.2-1,0-2.5c0.6-3,2-7.7,1.9-7.9c0-0.1,0.3-0.9-0.9-1.3c-1.1-0.4-1.5,0.3-1.6,0.3
	c-0.1,0-0.2,0.3-0.2,0.3s1.2-5.3-2.4-5.3c-2.3,0-5.5,2.5-7.1,4.8c-1,0.5-3.1,1.7-5.4,3c-0.9,0.5-1.7,1-2.6,1.4l-0.2-0.2
	c-4.5-4.7-12.8-8.1-12.4-14.5c0.1-2.3,0.9-8.5,15.8-15.9c12.2-6.1,22-4.5,23.7-0.8c2.4,5.3-5.2,15.2-17.9,16.7c-4.8,0.6-7.4-1.3-8-2
	c-0.7-0.7-0.8-0.8-1-0.6c-0.4,0.2-0.2,0.9,0,1.3c0.4,1,1.9,2.7,4.6,3.6c2.3,0.8,8,1.2,14.9-1.5c7.7-3,13.7-11.3,11.9-18.2
	c-1.8-7-13.5-9.3-24.5-5.3c-6.6,2.4-13.7,6-18.8,10.9c-6.1,5.7-7,10.7-6.6,12.7c1.4,7.3,11.6,12.1,15.7,15.6
	c-0.2,0.1-0.4,0.2-0.6,0.3c-2,1-9.7,5.1-11.7,9.4c-2.2,4.8,0.4,8.3,2.1,8.8c5.2,1.4,10.5-1.2,13.4-5.5c2.9-4.3,2.5-9.9,1.2-12.4
	l0-0.1l1.6-0.9c1-0.6,2-1.2,2.9-1.7c-0.5,1.4-0.8,3-1,5.3c-0.2,2.7,0.9,6.3,2.4,7.7c0.7,0.6,1.4,0.6,1.9,0.6c1.7,0,2.5-1.4,3.3-3.1
	c1.1-2.1,2-4.5,2-4.5s-1.1,6.5,2.1,6.5c1.2,0,2.3-1.5,2.9-2.3l0,0c0,0,0,0,0.1-0.2c0.1-0.2,0.2-0.3,0.2-0.3l0,0
	c0.5-0.8,1.5-2.7,3.1-5.8c2-4,3.9-8.9,3.9-8.9s0.2,1.2,0.8,3.2c0.3,1.2,1.1,2.5,1.7,3.7c-0.5,0.7-0.7,1-0.7,1l0,0
	c-0.4,0.5-0.8,1-1.2,1.6c-1.6,1.9-3.5,4.1-3.7,4.7c-0.3,0.7-0.2,1.3,0.3,1.7c0.4,0.3,1.2,0.4,2,0.3c1.4-0.1,2.4-0.5,2.9-0.7
	c0.8-0.3,1.7-0.7,2.5-1.3c1.6-1.2,2.5-2.8,2.4-5c-0.1-1.2-0.4-2.4-0.9-3.5c0.1-0.2,0.3-0.4,0.4-0.6c2.5-3.6,4.3-7.6,4.3-7.6
	s0.2,1.2,0.8,3.2c0.3,1,0.9,2.1,1.4,3.2c-2.3,1.9-3.7,4.1-4.2,5.5c-0.9,2.7-0.2,3.9,1.2,4.1c0.6,0.1,1.5-0.2,2.1-0.4
	c0.8-0.3,1.8-0.7,2.7-1.4c1.6-1.2,3.1-2.8,3-4.9c-0.1-1-0.3-2-0.7-2.9c2-0.8,4.5-1.3,7.7-0.9c6.9,0.8,8.3,5.1,8.1,6.9
	c-0.3,1.8-1.7,2.8-2.2,3.1c-0.5,0.3-0.6,0.4-0.6,0.6c0.1,0.3,0.3,0.3,0.7,0.2c0.6-0.1,3.6-1.5,3.8-4.8
	C342.2,73.5,338.1,68.8,330.9,68.9L330.9,68.9z M277.4,87.1c-2.3,2.5-5.5,3.5-6.9,2.7c-1.5-0.9-0.9-4.6,1.9-7.2
	c1.7-1.6,3.9-3.1,5.4-4.1c0.3-0.2,0.8-0.5,1.4-0.9c0.1-0.1,0.2-0.1,0.2-0.1c0.1-0.1,0.2-0.1,0.4-0.2
	C280.8,81.2,279.8,84.5,277.4,87.1L277.4,87.1z M294.1,75.7c-0.8,2-2.5,7-3.5,6.7c-0.9-0.2-1.4-4-0.2-7.8c0.6-1.9,1.9-4.1,2.7-5
	c1.3-1.4,2.6-1.9,3-1.3C296.5,69,294.6,74.5,294.1,75.7z M308,82.3c-0.3,0.2-0.7,0.3-0.8,0.2c-0.1-0.1,0.1-0.3,0.1-0.3
	s1.7-1.9,2.4-2.7c0.4-0.5,0.9-1.1,1.4-1.7l0,0.2C311.1,80.1,308.9,81.6,308,82.3z M318.7,79.8c-0.3-0.2-0.2-0.8,0.6-2.6
	c0.3-0.7,1.1-1.9,2.4-3.1c0.2,0.5,0.3,0.9,0.2,1.3C321.9,78.3,319.9,79.3,318.7,79.8z"/>
<g id="layer1" transform="translate(-193.633,-276.3622)">
	<g id="g3013" transform="translate(119,276.3622)">
		<polygon id="polygon2989" class="st8" points="312.5,78.7 308.4,122 291,126.8 273.7,121.9 270,78.5 		"/>
		<polygon id="polygon2991" class="st9" points="305.1,119.3 308.6,82.2 291.2,82.2 291.1,123.1 		"/>
		<polygon id="polygon2993" class="st10" points="278.8,98.2 279.2,103.5 291.1,103.6 291.2,98.2 		"/>
		<polygon id="polygon2995" class="st10" points="291.2,87.5 291.2,87.5 277.8,87.4 278.3,92.8 291.2,92.8 		"/>
		<polygon id="polygon2997" class="st10" points="291.1,117.6 291.1,112.1 291.1,112.1 285.2,110.4 284.8,106.2 281.9,106.2 
			279.5,106.2 280.2,114.5 291.1,117.6 		"/>
		<path id="path2999" d="M280,66.8l6.4,0l0,2.7l-3.7,0l0,2.7l3.7,0l0,2.7l-6.4,0L280,66.8z"/>
		<path id="path3001" d="M287.7,66.8l6.4,0l0,2.3l-3.7,0l0,0.5l3.7,0l0,5.4l-6.4,0l0-2.5l3.7,0l0-0.5l-3.7,0L287.7,66.8z"/>
		<path id="path3003" d="M295.5,66.8l6.4,0l0,2.3l-3.7,0l0,0.5l3.7,0l0,5.4l-6.4,0l0-2.5l3.7,0l0-0.5l-3.7,0L295.5,66.8z"/>
		<polygon id="polygon3005" class="st6" points="297.7,103.6 297,110.5 291.1,112.1 291.1,117.6 302,114.6 302.1,113.7 303.4,99.7 
			303.5,98.3 304.5,87.5 291.2,87.5 291.1,92.8 298.6,92.8 298.1,98.3 291.1,98.2 291.1,103.6 		"/>
	</g>
</g>
<g>
	<path d="M65.3,218.7l2.7,0l0,2.7l2.5,0l0-2.7l2.7,0l0.1,8.1l-2.7,0l0-2.7l-2.5,0l0,2.7l-2.7,0 M76.7,221.2l-2.4,0l0-2.7l7.4-0.1
		l0,2.7l-2.4,0l0.1,5.4l-2.7,0 M82.9,218.4l2.8,0l1.8,2.8l1.7-2.9l2.8,0l0.1,8.1l-2.7,0l-0.1-4l-1.8,2.9l-1.9-2.9l0.1,4l-2.6,0
		 M93.4,218.2l2.7,0l0.1,5.4l3.8-0.1l0,2.7l-6.5,0.1"/>
	<path class="st11" d="M66.1,273.7l-4.5-43.2l42.4-0.7l-3.2,43.3l-17.3,5.1"/>
	<path class="st12" d="M83.4,274.5l-0.6-40.8l17.3-0.3l-2.7,37"/>
	<path class="st10" d="M69.5,239.2l13.3-0.2l0.1,5.3l-7.5,0.1l0.6,5.4l7-0.1l0.1,5.3l-11.9,0.2 M71.5,257.8l5.3-0.1l0.4,4.2l6,1.5
		l0.1,5.5l-10.9-2.9"/>
	<path class="st6" d="M96.1,238.8L82.8,239l0.1,5.3l12.8-0.2 M95.3,249.5L83,249.7l0.1,5.3l6.5-0.1l-0.5,6.9l-5.9,1.7l0.1,5.5
		l10.8-3.2"/>
</g>
<g>
	
		<rect x="513.3" y="36.9" transform="matrix(1 -4.620853e-03 4.620853e-03 1 -0.3028 2.5107)" class="st13" width="59.7" height="59.7"/>
	<path class="st14" d="M553.5,83.5c1.2,2,2.8,3.4,5.6,3.4c2.3,0,3.8-1.2,3.8-2.8c0-1.9-1.5-2.6-4.1-3.7l-1.4-0.6
		c-4.1-1.7-6.8-3.9-6.8-8.4c0-4.2,3.2-7.4,8.2-7.5c3.6,0,6.1,1.2,8,4.5l-4.4,2.8c-1-1.7-2-2.4-3.6-2.4c-1.6,0-2.7,1.1-2.7,2.4
		c0,1.7,1.1,2.4,3.5,3.4l1.4,0.6c4.8,2,7.5,4.1,7.5,8.8c0,5.1-3.9,7.8-9.3,7.9c-5.2,0-8.6-2.4-10.3-5.7L553.5,83.5z M533.7,84.1
		c0.9,1.6,1.7,2.9,3.6,2.9c1.8,0,3-0.7,3-3.5l-0.1-19.1l5.6,0l0.1,19.2c0,5.8-3.4,8.5-8.3,8.5c-4.5,0-7.1-2.3-8.4-5.1L533.7,84.1z"
		/>
</g>
<g>
	<path class="st15" d="M705.3,219.7h48.3c3.2,0,5.9,2.6,5.9,5.9v48.3c0,3.2-2.6,5.9-5.9,5.9h-48.3c-3.2,0-5.9-2.6-5.9-5.9v-48.3
		C699.4,222.3,702.1,219.7,705.3,219.7z"/>
	<path class="st16" d="M736.6,267.4v5.9c0.9,0.5,2.1,0.9,3.4,1.1s2.7,0.4,4.1,0.4s2.7-0.1,4-0.4s2.3-0.7,3.3-1.3
		c0.9-0.6,1.8-1.4,2.2-2.5s0.8-2.2,0.8-3.8c0-1.1-0.2-2-0.5-2.8s-0.8-1.5-1.4-2.1c-0.6-0.6-1.3-1.2-2.1-1.6s-1.8-1-2.8-1.4
		c-0.8-0.3-1.4-0.6-2.1-0.9c-0.6-0.3-1.1-0.6-1.5-0.9c-0.4-0.3-0.8-0.6-1-1c-0.2-0.4-0.4-0.7-0.4-1.2c0-0.4,0.1-0.8,0.3-1.1
		c0.2-0.3,0.5-0.6,0.9-0.8s0.8-0.4,1.4-0.5c0.6-0.1,1.2-0.2,1.9-0.2c0.5,0,1,0,1.5,0.1c0.5,0.1,1.1,0.2,1.6,0.3s1.1,0.3,1.6,0.6
		c0.5,0.2,1,0.5,1.4,0.8v-5.5c-0.9-0.3-1.9-0.6-2.9-0.8c-1.1-0.2-2.2-0.2-3.6-0.2s-2.7,0.2-4,0.4s-2.3,0.8-3.3,1.4
		c-0.9,0.6-1.6,1.4-2.2,2.5c-0.6,1-0.8,2.1-0.8,3.5c0,1.8,0.5,3.3,1.5,4.5c1,1.3,2.6,2.2,4.6,3.2c0.8,0.3,1.5,0.7,2.2,1
		s1.3,0.6,1.8,1c0.5,0.3,0.9,0.7,1.2,1.1c0.3,0.4,0.4,0.9,0.4,1.4c0,0.4-0.1,0.7-0.3,1.1c-0.2,0.3-0.5,0.6-0.8,0.8s-0.8,0.4-1.4,0.6
		c-0.6,0.1-1.2,0.2-2,0.2c-1.3,0-2.6-0.2-3.8-0.7c-1.3-0.4-2.5-1.1-3.5-2L736.6,267.4z M726.7,253h7.5v-4.8h-21v4.8h7.5v21.4h6V253z
		"/>
</g>
<g id="vlpa">
	<g id="vlpb">
		<g id="vlpc">
			<g id="vlpd">
				<path class="st17" d="M28.4,432.6h38.8c5.9,0,10.6,4.8,10.6,10.6v37.2c0,5.9-4.8,10.6-10.6,10.6H28.4c-5.9,0-10.6-4.8-10.6-10.6
					v-37.2C17.8,437.3,22.6,432.6,28.4,432.6z"/>
			</g>
		</g>
	</g>
	<g id="vlpe">
		<g id="vlpf">
			<path class="st18" d="M46.8,467.6h-9.3l-1.9,5.9c0,0.2-0.2,0.4-0.5,0.4h-4.7c-0.3,0-0.4-0.2-0.3-0.5l8-23.2
				c0.1-0.2,0.2-0.5,0.2-0.8c0.1-0.5,0.2-1.1,0.2-1.6c0-0.1,0.1-0.2,0.2-0.3h0.1h6.4c0.2,0,0.3,0.1,0.3,0.2l9.1,25.8
				c0.1,0.3,0,0.4-0.2,0.4h-5.2c-0.2,0-0.4-0.1-0.4-0.3L46.8,467.6L46.8,467.6z M39,462.5h6.3c-0.1-0.5-0.3-1.1-0.6-1.8
				c-0.2-0.7-0.5-1.4-0.7-2.1c-0.2-0.8-0.5-1.5-0.7-2.3c-0.2-0.8-0.5-1.5-0.7-2.2c-0.2-0.7-0.4-1.4-0.5-2h0
				c-0.2,1.1-0.5,2.1-0.9,3.2c-0.4,1.2-0.8,2.4-1.1,3.7C39.7,460.3,39.3,461.4,39,462.5z"/>
			<path class="st18" d="M60.3,451.8c-0.8,0-1.6-0.3-2.2-0.9c-0.6-0.6-0.9-1.5-0.8-2.3c0-0.9,0.3-1.7,0.9-2.2
				c0.6-0.6,1.4-0.9,2.2-0.9c1,0,1.7,0.3,2.3,0.9c0.5,0.6,0.8,1.4,0.8,2.2c0,0.8-0.3,1.7-0.9,2.3C62,451.5,61.2,451.9,60.3,451.8
				L60.3,451.8z M57.5,473.5v-19.2c0-0.2,0.1-0.4,0.3-0.4h5c0.2,0,0.3,0.1,0.3,0.4v19.2c0,0.3-0.1,0.4-0.3,0.4h-4.9
				C57.6,473.9,57.5,473.8,57.5,473.5z"/>
		</g>
	</g>
</g>
<g id="Layer_2_1_">
	<g id="Surfaces">
		<g id="UI_UX_Surface">
			<g id="Outline_no_shadow">
				<path class="st19" d="M76.5,569.6h38.8c5.9,0,10.6,4.8,10.6,10.6v37.2c0,5.9-4.8,10.6-10.6,10.6H76.5c-5.9,0-10.6-4.8-10.6-10.6
					v-37.2C65.9,574.4,70.6,569.6,76.5,569.6z"/>
			</g>
		</g>
	</g>
	<g id="Outlined_Mnemonics_Logos">
		<g id="Xd">
			<path class="st20" d="M97.4,585l-7.5,12.4l8,13.1c0.1,0.1,0.1,0.2,0.1,0.3c0,0.1-0.1,0-0.3,0H92c-0.4,0-0.7,0-0.8-0.3
				c-0.5-1-1.1-2.1-1.6-3.1c-0.5-1-1.1-2.1-1.7-3.2s-1.2-2.1-1.8-3.2h0c-0.5,1.1-1.1,2.2-1.7,3.2c-0.6,1.1-1.1,2.1-1.7,3.2
				c-0.6,1.1-1.2,2.1-1.7,3.2c-0.1,0.2-0.3,0.3-0.6,0.3h-5.5c-0.1,0-0.2,0-0.2-0.1c0-0.1,0-0.2,0-0.3l7.8-12.8L74.9,585
				c-0.1-0.1-0.1-0.2-0.1-0.2c0.1-0.1,0.2-0.1,0.2-0.1h5.7c0.1,0,0.2,0,0.3,0c0.1,0.1,0.2,0.1,0.2,0.2c0.5,1.1,1,2.1,1.6,3.2
				c0.6,1.1,1.2,2.1,1.8,3.2c0.6,1,1.2,2.1,1.7,3.2h0.1c0.5-1.1,1.1-2.2,1.6-3.2c0.5-1,1.1-2.1,1.7-3.2c0.6-1,1.1-2.1,1.7-3.1
				c0-0.1,0.1-0.2,0.2-0.2c0.1,0,0.2-0.1,0.3,0h5.3c0.1,0,0.2,0,0.3,0.2C97.5,584.9,97.5,585,97.4,585L97.4,585z"/>
			<path class="st20" d="M109,611.4c-1.8,0-3.7-0.3-5.4-1.1c-1.6-0.7-2.9-1.9-3.8-3.4c-0.9-1.5-1.4-3.4-1.4-5.7
				c0-1.9,0.4-3.7,1.4-5.3c0.9-1.6,2.3-3,4-3.9c1.8-1,3.8-1.5,6.3-1.5c0.1,0,0.3,0,0.5,0c0.2,0,0.5,0,0.8,0v-7.9
				c0-0.2,0.1-0.3,0.2-0.3h5.1c0.1,0,0.2,0.1,0.2,0.2c0,0,0,0,0,0v23.8c0,0.5,0,1,0,1.5c0.1,0.5,0.1,1,0.1,1.5
				c0,0.2-0.1,0.3-0.2,0.4c-1.3,0.5-2.7,1-4.1,1.2C111.5,611.3,110.3,611.4,109,611.4z M111.4,606.4v-11c-0.2,0-0.4-0.1-0.7-0.1
				c-0.3,0-0.6,0-0.8,0c-1,0-1.9,0.2-2.8,0.7c-0.8,0.4-1.6,1-2.1,1.8c-0.6,0.8-0.8,1.9-0.8,3.2c0,0.9,0.1,1.8,0.4,2.6
				c0.2,0.7,0.6,1.3,1.1,1.8c0.5,0.4,1,0.8,1.7,1c0.7,0.2,1.4,0.3,2.1,0.3c0.4,0,0.7,0,1,0C110.8,606.5,111.1,606.5,111.4,606.4z"/>
		</g>
	</g>
</g>
<g id="Layer_2_2_">
	<g id="Surfaces_1_">
		<g id="Photo_Surface">
			<g id="Outline_no_shadow_1_">
				<path class="st21" d="M44.9,500.5h38.8c5.9,0,10.6,4.8,10.6,10.6v37.2c0,5.9-4.8,10.6-10.6,10.6H44.9c-5.9,0-10.6-4.8-10.6-10.6
					v-37.2C34.3,505.3,39.1,500.5,44.9,500.5z"/>
			</g>
		</g>
	</g>
	<g id="Outlined_Mnemonics_Logos_1_">
		<g id="Ps">
			<path class="st22" d="M47.8,541.5v-25.7c0-0.2,0.1-0.3,0.2-0.3c0.4,0,0.8,0,1.4,0c0.6,0,1.2,0,1.9,0c0.7,0,1.4,0,2.2,0
				c0.8,0,1.5,0,2.3,0c2,0,3.8,0.2,5.1,0.8c1.2,0.4,2.4,1.1,3.4,2c0.8,0.8,1.4,1.8,1.8,2.9c0.4,1,0.6,2.1,0.6,3.2
				c0,2.1-0.5,3.9-1.5,5.3c-1,1.4-2.4,2.5-4,3c-1.7,0.6-3.6,0.9-5.6,0.9c-0.6,0-1,0-1.2,0c-0.2,0-0.6,0-1.1,0v8
				c0,0.2-0.1,0.3-0.3,0.4c0,0,0,0-0.1,0h-4.7C47.9,541.9,47.8,541.8,47.8,541.5z M53.3,520.4v8.4c0.4,0,0.7,0,1,0h1.3
				c1,0,2-0.1,2.9-0.4c0.8-0.2,1.5-0.7,2-1.3c0.5-0.6,0.8-1.5,0.8-2.6c0-0.8-0.2-1.5-0.6-2.2c-0.4-0.7-1-1.2-1.8-1.4
				c-0.9-0.4-1.9-0.5-3-0.5c-0.7,0-1.2,0-1.7,0C53.8,520.3,53.4,520.3,53.3,520.4L53.3,520.4z"/>
			<path class="st22" d="M82.3,527.2c-0.8-0.4-1.5-0.7-2.4-0.9c-0.9-0.2-1.8-0.3-2.8-0.3c-0.5,0-1,0.1-1.5,0.2
				c-0.3,0.1-0.6,0.2-0.8,0.5c-0.1,0.2-0.2,0.4-0.2,0.7c0,0.2,0.1,0.5,0.2,0.6c0.2,0.3,0.5,0.5,0.8,0.7c0.6,0.3,1.2,0.6,1.8,0.8
				c1.3,0.5,2.7,1.1,3.8,1.8c0.8,0.5,1.5,1.2,2,2.1c0.4,0.8,0.6,1.7,0.6,2.6c0,1.2-0.3,2.3-1,3.3c-0.7,1-1.7,1.8-2.8,2.2
				c-1.2,0.5-2.7,0.8-4.5,0.8c-1.2,0-2.3-0.1-3.4-0.3c-0.9-0.1-1.8-0.4-2.5-0.8c-0.2-0.1-0.3-0.3-0.3-0.5v-4.4c0-0.1,0-0.2,0.1-0.2
				s0.2,0,0.2,0c1,0.6,2,1,3.1,1.2c0.9,0.2,1.9,0.4,2.9,0.4c1,0,1.6-0.1,2.1-0.3c0.4-0.2,0.7-0.6,0.7-1c0-0.4-0.2-0.7-0.6-1
				c-0.4-0.3-1.2-0.7-2.4-1.2c-1.3-0.4-2.5-1-3.6-1.8c-0.8-0.5-1.4-1.3-1.9-2.1c-0.4-0.8-0.6-1.7-0.6-2.5c0-1.1,0.3-2.1,0.8-3
				c0.6-1,1.5-1.8,2.6-2.3c1.2-0.6,2.7-0.9,4.4-0.9c1,0,2.1,0.1,3.1,0.2c0.8,0.1,1.5,0.3,2.2,0.6c0.1,0,0.2,0.1,0.2,0.2
				c0,0.1,0.1,0.2,0.1,0.3v4.1c0,0.1-0.1,0.2-0.1,0.2C82.5,527.3,82.4,527.3,82.3,527.2z"/>
		</g>
	</g>
</g>
<g>
	<path id="path0_fill" class="st23" d="M248.3,761.1c5.5,0,10-4.5,10-10v-10h-10c-5.5,0-10,4.5-10,10
		C238.3,756.6,242.8,761.1,248.3,761.1z"/>
	<path id="path1_fill" class="st24" d="M238.3,731.1c0-5.5,4.5-10,10-10h10v20h-10C242.8,741.1,238.3,736.6,238.3,731.1z"/>
	<path id="path1_fill_1_" class="st25" d="M238.3,711.1c0-5.5,4.5-10,10-10h10v20h-10C242.8,721.1,238.3,716.6,238.3,711.1z"/>
	<path id="path2_fill" class="st26" d="M258.3,701.1h10c5.5,0,10,4.5,10,10c0,5.5-4.5,10-10,10h-10V701.1z"/>
	<path id="path3_fill" class="st27" d="M278.3,731.1c0,5.5-4.5,10-10,10c-5.5,0-10-4.5-10-10c0-5.5,4.5-10,10-10
		C273.8,721.1,278.3,725.5,278.3,731.1z"/>
</g>
<image style="overflow:visible;" width="5417" height="2709" xlink:href="English_language.png"  transform="matrix(1.846040e-02 0 0 1.846040e-02 501.4874 705.3257)">
</image>
<circle class="st28" cx="401.5" cy="401.1" r="325"/>
<circle class="st28" cx="401.5" cy="401.5" r="400"/>
</svg>
