<svg id="Warstwa_1" data-name="Warstwa 1" xmlns="http://www.w3.org/2000/svg" viewBox="0 0 204.2 204.2"><defs><style>.cls-1{fill:none;}.cls-2{fill:#fa4616;}</style></defs><polygon class="cls-1" points="183 183 183 21.2 21.2 21.2 21.2 182.9 183 182.9 183 183"/><path class="cls-2" d="M39.6,52.7v61.7c0,28.2,15.5,44.9,41.7,44.9,27,0,42.5-16.7,42.5-44.9V52.7H102.6v61.7c0,15.9-6.9,24.9-20.8,24.9-14.7,0-21.2-9.4-21.2-24.9V52.7Z"/><path class="cls-2" d="M151.1,65.3c7.4,0,13.1-5.3,13.1-12.7,0-7.8-5.3-13.1-13.1-13.1A12.66,12.66,0,0,0,138,52.6C138.1,60,143.8,65.3,151.1,65.3Z"/><rect class="cls-2" x="140.5" y="75.1" width="21.2" height="83"/><polyline class="cls-2" points="0 0 204.2 0 204.2 204.2 183 182.9 183 21.2 21.2 21.2 21.2 182.9 0 204.2 0 0"/><polygon class="cls-2" points="204.2 204.2 183 182.9 21.2 182.9 0 204.2 204.2 204.2"/></svg>